<?xml version="1.0" encoding="utf-8"?>
<!-- Generator: Adobe Illustrator 20.1.0, SVG Export Plug-In . SVG Version: 6.00 Build 0)  -->
<svg version="1.1" id="Layer_1" xmlns="http://www.w3.org/2000/svg" xmlns:xlink="http://www.w3.org/1999/xlink" x="0px" y="0px"
	 viewBox="0 0 275.3 269.5" style="enable-background:new 0 0 275.3 269.5;" xml:space="preserve">
<style type="text/css">
	.st0{fill:#FFFFFF;stroke:#000000;stroke-width:9;stroke-linecap:round;stroke-linejoin:round;}
	.st1{fill:#75767A;}
	.st2{fill:#FFFFFF;}
</style>
<title>InformaticsMatters_Squonk_Vector</title>
<g>
	<g id="Layer_2">
		<path d="M123.6,52.6c-2,0-3.8-1-4.9-2.7c-8-13.2-9.8-29.3-5.1-44c1-3,4.2-4.6,7.2-3.6c3,1,4.6,4.2,3.6,7.2
			c-3.7,11.5-2.3,24.1,4,34.5c1.6,2.7,0.8,6.2-1.9,7.8C125.6,52.3,124.6,52.6,123.6,52.6L123.6,52.6z"/>
		<path d="M131.9,39.8L131.9,39.8c-3.2,0-5.7-2.6-5.7-5.8c0,0,0,0,0,0c0.1-7.2,2-14.2,5.7-20.3c3.6-5.6,8.6-10.1,14.5-13.1
			c2.6-1.7,6.2-0.9,7.8,1.8c1.7,2.6,0.9,6.2-1.8,7.8c-0.2,0.2-0.5,0.3-0.8,0.4c-4.1,2-7.6,5.2-10.2,9c-2.5,4.4-3.9,9.4-3.9,14.5
			C137.6,37.3,135.1,39.8,131.9,39.8C131.9,39.8,131.9,39.8,131.9,39.8z"/>
		<path d="M148.2,39c-3.1,0-5.7-2.6-5.7-5.7c0-0.6,0.1-1.2,0.3-1.7c3.4-10.7,15.3-19.6,24.8-22c3.1-0.6,6.1,1.3,6.7,4.4
			c0.6,2.9-1.1,5.7-3.9,6.6c-6.2,1.6-14.6,7.9-16.7,14.4C152.9,37.4,150.7,39,148.2,39z"/>
		<path class="st0" d="M68.5,68.9c0,0,22.3-27.8,51.8-32.2s53.4,4.4,61,8.7s20.7,14.2,27.3,23.4s27.3,43.6,30.5,52.3
			s5.4,14.2,5.4,26.2s-5.4,25-8.7,30.5s-15.8,18.6-24,22.4s-20.7,7.1-22.3,7.6s-104.1,0-104.1,0s-13.6-4.4-19.6-7.1
			S46.2,186,40.2,177.8s-9.3-19.6-9.3-31s4.4-25.1,9.8-33.8S68.5,68.9,68.5,68.9z"/>
		<path d="M38.7,174.5c-12.1,12.1-16.5,30.9-18,43.2c-0.5,3.1,1.6,6,4.7,6.5s6-1.6,6.5-4.7c0-0.1,0-0.3,0.1-0.4
			c1.3-10.2,4.8-25.9,14-35.8C43.1,180.8,40.7,177.8,38.7,174.5z"/>
		<path d="M33.6,158.9c-1.7-4.1-2.6-8.5-2.9-13c-11.3,9.9-17.9,24.8-21.4,35.1c-1,3,0.6,6.2,3.6,7.2c3,1,6.2-0.6,7.2-3.6l0,0
			c2.5-7.4,6.8-17.6,13.5-25.5L33.6,158.9z"/>
		<path d="M42.7,111.6C22.9,115,8.4,133.2,0.9,145.1c-1.7,2.7-0.9,6.2,1.8,7.8c2.7,1.7,6.2,0.9,7.8-1.8l0,0
			c5.2-8.2,14.1-19.9,25.5-25.5C37.1,120.5,39.4,115.7,42.7,111.6z"/>
		<path d="M253.2,217.7c-1.5-11.9-5.7-30-17-42.2c-1.1,4.1-2.9,7.9-5.4,11.3c7.1,9.8,10,23.2,11.1,32.3c0.4,3.1,3.2,5.3,6.4,4.9
			C251.4,223.6,253.6,220.8,253.2,217.7L253.2,217.7z"/>
		<path d="M264.5,181c-3.7-11-11-27.3-23.7-37.1c1,3.2,1.6,6.5,1.7,9.9c0.1,2.5-0.1,5-0.6,7.5c5.7,7.6,9.5,16.7,11.8,23.4
			c0.9,3,4.1,4.7,7.1,3.8s4.7-4.1,3.8-7.1C264.6,181.2,264.5,181.1,264.5,181z"/>
		<path d="M274.3,142.6c-7.7-11-21.8-27.2-40.2-31c3,4.3,5.1,9.1,6.2,14.2c10.7,5.4,19.4,15.8,24.7,23.3c1.8,2.6,5.3,3.2,7.9,1.4
			C275.5,148.7,276.1,145.1,274.3,142.6L274.3,142.6L274.3,142.6z"/>
		<path class="st1" d="M198.8,132.2c-0.3,1-0.8,2-1.2,3c-4.7,10.6,3.8,23.6,15,25.1c5.2,0.7,10.5-0.9,14.6-4.2
			c13.9-11.4,0-30.1-12.3-35.2c-2.8-1.2-17.1-8.8-19.1-6c-1.1,1.6,1.4,3.8,2.1,5C200.5,124.2,200.3,128.1,198.8,132.2z"/>
		<path class="st1" d="M75.2,132.2c0.3,1,0.8,2,1.2,3c4.7,10.6-3.8,23.6-15,25.1c-5.2,0.7-10.5-0.9-14.6-4.2
			c-13.9-11.4,0-30.1,12.3-35.2c2.8-1.2,17.1-8.8,19.1-6c1.1,1.6-1.4,3.8-2.1,5C73.5,124.2,73.8,128.1,75.2,132.2z"/>
		<circle cx="93.3" cy="92.2" r="14.8"/>
		<circle cx="184.9" cy="92.2" r="14.8"/>
		<path d="M76.5,188.6c-3.1,0-5.7-2.6-5.7-5.7c0-1.7,0.8-3.4,2.2-4.5c18.1-14.2,40.3-22.4,63.4-23.2c22.9-0.9,45.4,5.8,64.1,19
			c2.6,1.8,3.2,5.4,1.4,7.9c-1.8,2.6-5.4,3.2-7.9,1.3c-33.6-23.8-80.4-22.2-113.9,3.9C79,188.2,77.7,188.6,76.5,188.6z"/>
		<polyline class="st2" points="161.3,123.2 195.2,232 79.3,232 110.9,123.2 		"/>
		<path d="M195.2,237.7h-116c-3.1,0-5.7-2.5-5.7-5.7c0-0.5,0.1-1.1,0.2-1.6l31.6-108.8c0.9-3,4-4.7,7-3.9c3,0.9,4.7,4,3.9,7
			L86.8,226.4h100.7l-31.6-101.4c-0.9-3,0.7-6.2,3.7-7.1c3-0.9,6.2,0.7,7.1,3.7l33.9,108.8c0.9,3-0.7,6.2-3.7,7.1
			C196.4,237.6,195.8,237.7,195.2,237.7L195.2,237.7z"/>
		<path d="M115,187.9c-3.1,0-5.7-2.5-5.7-5.7c0-1.8,0.9-3.5,2.3-4.6c15-11.1,35.2-11.8,50.9-2c2.6,1.7,3.4,5.2,1.7,7.8
			s-5.2,3.4-7.8,1.7l0,0c-11.4-7.2-27-6.6-38.1,1.6C117.4,187.5,116.2,187.9,115,187.9z"/>
		<path d="M122.4,155.9c-3.1,0-5.7-2.6-5.6-5.7c0-1.7,0.8-3.4,2.2-4.5c10.5-8.2,25.1-8.8,36.2-1.5c2.6,1.7,3.3,5.3,1.6,7.9
			s-5.3,3.3-7.9,1.6l0,0c-7.1-4.6-16.3-4.2-23,1C124.9,155.4,123.7,155.9,122.4,155.9z"/>
		<path class="st2" d="M137.1,263.8c-33.6,0-59-13.2-59-30.7s25.3-30.7,59-30.7s59,13.2,59,30.7S170.7,263.8,137.1,263.8z"/>
		<path d="M137.1,208.2c29.4,0,53.3,11.2,53.3,25s-23.9,25-53.3,25s-53.3-11.2-53.3-25S107.7,208.2,137.1,208.2 M137.1,196.8
			c-15.9,0-31,3-42.5,8.4c-19.3,9-22.2,21.4-22.2,28s2.9,18.9,22.2,28c11.5,5.4,26.6,8.4,42.5,8.4s31-3,42.5-8.4
			c19.3-9,22.1-21.4,22.1-28s-2.9-18.9-22.1-28C168.1,199.8,153,196.8,137.1,196.8L137.1,196.8z"/>
		<path class="st0" d="M92.8,62c-3.6-5.4-7.3-14.5-8.3-29.5c0.3-2.5,0.2-5-0.3-7.5l0,0c-0.6-3.3-2.1-6.3-4.4-8.6
			C70,6.6,48.4,12.3,31.5,29.1S9,67.6,18.8,77.4c3.3,3.3,7.8,4.8,13,4.8l0,0c0.9,0,1.8,0,2.7-0.1c19.3-0.8,23.3,1.5,31.7,8.4"/>
		<path class="st0" d="M179.8,59.5c3.6-5.4,7.3-14.5,8.3-29.5c-0.3-2.5-0.2-5,0.3-7.4l0,0c0.6-3.3,2.1-6.3,4.4-8.6
			c9.8-9.8,31.5-4.1,48.3,12.7s22.5,38.5,12.7,48.3c-3.3,3.3-7.8,4.8-13,4.8l0,0c-0.9,0-1.8,0-2.7-0.1c-19.3-0.8-23.3,1.5-31.7,8.4"
			/>
		<path d="M34,70.2c-3.1,0-5.7-2.5-5.7-5.7c0-0.4,0-0.7,0.1-1.1c3.4-17.6,17.1-32.6,34.3-37.3c3-0.8,6.2,1,7,4s-1,6.2-4,7l0,0
			c-12.8,3.6-23.6,15.3-26.1,28.5C39,68.3,36.7,70.2,34,70.2z"/>
		<path d="M236.5,67.7c-2.7,0-5.1-1.9-5.6-4.6c-2.5-13.2-13.3-25-26.1-28.5c-3-0.8-4.8-4-4-7s4-4.8,7-4
			c17.2,4.8,30.9,19.8,34.3,37.4c0.6,3.1-1.4,6.1-4.5,6.7C237.2,67.7,236.9,67.7,236.5,67.7L236.5,67.7z"/>
		<path d="M136.9,240c-15.1,0-25.1-3.4-30.5-6.4c-1.5-0.8-2-2.6-1.2-4.1c0.3-0.5,0.7-1,1.2-1.2c5.4-3,15.4-6.4,30.5-6.4
			s25.1,3.4,30.5,6.4c1.5,0.8,2,2.6,1.2,4.1c-0.3,0.5-0.7,1-1.2,1.2C162,236.5,152,240,136.9,240z"/>
	</g>
</g>
</svg>
