<svg id="Layer_1" data-name="Layer 1" xmlns="http://www.w3.org/2000/svg" viewBox="0 0 525.02 99.38"><defs><style>.cls-1{isolation:isolate;}.cls-2{fill:#383838;}.cls-3{fill:#75767a;}.cls-4{fill:#fff;}</style></defs><g id="Squonk" class="cls-1"><g class="cls-1"><path class="cls-2" d="M131,18.22a7.91,7.91,0,0,0-1.21-.9,14.24,14.24,0,0,0-2.12-1.11,18.59,18.59,0,0,0-2.73-.93,11.94,11.94,0,0,0-3-.38,6.7,6.7,0,0,0-4,1,3.28,3.28,0,0,0-1.32,2.79,2.9,2.9,0,0,0,.49,1.73,4.41,4.41,0,0,0,1.45,1.2,11.52,11.52,0,0,0,2.39.95q1.44.42,3.33.9a46.49,46.49,0,0,1,4.47,1.42,12,12,0,0,1,3.41,1.89,7.75,7.75,0,0,1,2.15,2.72,9,9,0,0,1,.76,3.91A9.72,9.72,0,0,1,134,38a8.56,8.56,0,0,1-2.74,3.1,11.84,11.84,0,0,1-4,1.72,19.46,19.46,0,0,1-4.7.55,25.19,25.19,0,0,1-7.48-1.14A23,23,0,0,1,108.52,39l2.88-5.63a9.93,9.93,0,0,0,1.54,1.11,25.22,25.22,0,0,0,2.63,1.37,20.65,20.65,0,0,0,3.36,1.16,15.41,15.41,0,0,0,3.78.47q5.4,0,5.4-3.45a2.85,2.85,0,0,0-.62-1.85,5.26,5.26,0,0,0-1.75-1.32,16.08,16.08,0,0,0-2.75-1c-1.07-.32-2.27-.67-3.59-1a31.6,31.6,0,0,1-4.19-1.45,11.07,11.07,0,0,1-3-1.84,7,7,0,0,1-1.77-2.46,8.63,8.63,0,0,1-.59-3.34,10.44,10.44,0,0,1,.94-4.54,9.21,9.21,0,0,1,2.63-3.31,11.64,11.64,0,0,1,3.9-2,16.1,16.1,0,0,1,4.78-.69,18.53,18.53,0,0,1,6.53,1.11,24.39,24.39,0,0,1,5.21,2.63Z"/><path class="cls-2" d="M147.84,43.48a9.55,9.55,0,0,1-4.36-1,10.78,10.78,0,0,1-3.43-2.77,13.16,13.16,0,0,1-2.25-4.09,15.66,15.66,0,0,1-.8-5,14,14,0,0,1,.88-5,12.71,12.71,0,0,1,2.43-4.05A11.56,11.56,0,0,1,144,18.78a10.76,10.76,0,0,1,4.59-1,9.56,9.56,0,0,1,5,1.3,10.78,10.78,0,0,1,3.55,3.43v-4.3h5.53V45.47a2.11,2.11,0,0,0,.38,1.44,1.89,1.89,0,0,0,1.33.45v5.4c-.54.09-1.12.16-1.75.21s-1.2.07-1.71.07a4.72,4.72,0,0,1-1.77-.33,4.67,4.67,0,0,1-1.45-.9,4.45,4.45,0,0,1-1-1.35,3.91,3.91,0,0,1-.38-1.72V38.66a9.23,9.23,0,0,1-3.55,3.62A10.09,10.09,0,0,1,147.84,43.48Zm2.36-5.39A5.73,5.73,0,0,0,153.75,37a10,10,0,0,0,2.6-2.93V28.15a6.06,6.06,0,0,0-.92-1.94,8,8,0,0,0-1.49-1.58,6.86,6.86,0,0,0-1.85-1.07,5.55,5.55,0,0,0-2-.37,5.84,5.84,0,0,0-2.68.61,6.48,6.48,0,0,0-2.08,1.68A8.19,8.19,0,0,0,144,27.92a8.28,8.28,0,0,0-.5,2.84,8.14,8.14,0,0,0,.5,2.88A7.34,7.34,0,0,0,145.35,36a6.31,6.31,0,0,0,2.11,1.56A6.43,6.43,0,0,0,150.2,38.09Z"/></g><g class="cls-1"><path class="cls-2" d="M175.14,43.48A7,7,0,0,1,169.32,41q-2-2.46-2-7.28V18.22h6.34V32.36q0,5.73,4.11,5.73A6.52,6.52,0,0,0,181.36,37a7.93,7.93,0,0,0,2.81-3.39V18.22h6.34v17.5a2.18,2.18,0,0,0,.36,1.42,1.55,1.55,0,0,0,1.16.48V43a14.44,14.44,0,0,1-1.59.24c-.42,0-.81,0-1.16,0a4.59,4.59,0,0,1-2.77-.78,3.07,3.07,0,0,1-1.25-2.15l-.14-2a10.67,10.67,0,0,1-4.26,3.84A12.8,12.8,0,0,1,175.14,43.48Z"/></g><g class="cls-1"><path class="cls-2" d="M207.31,43.48a13.5,13.5,0,0,1-5.44-1,12.17,12.17,0,0,1-4.09-2.81,12.5,12.5,0,0,1-2.58-4.1,13.32,13.32,0,0,1-.9-4.87,13.51,13.51,0,0,1,.9-4.92,12.35,12.35,0,0,1,2.58-4.09,12.19,12.19,0,0,1,4.09-2.82,13.67,13.67,0,0,1,5.44-1,13.5,13.5,0,0,1,5.42,1,12.25,12.25,0,0,1,6.65,6.91,13.51,13.51,0,0,1,.9,4.92,13.32,13.32,0,0,1-.9,4.87,12.61,12.61,0,0,1-2.56,4.1,11.89,11.89,0,0,1-4.07,2.81A13.5,13.5,0,0,1,207.31,43.48Zm-6.48-12.82a8.45,8.45,0,0,0,.5,3A7.26,7.26,0,0,0,202.7,36a6.23,6.23,0,0,0,2.06,1.54,6.31,6.31,0,0,0,5.11,0,6.29,6.29,0,0,0,2-1.54,7.11,7.11,0,0,0,1.38-2.37,9.46,9.46,0,0,0,0-6,7.17,7.17,0,0,0-1.38-2.36,6,6,0,0,0-2-1.54,6.09,6.09,0,0,0-2.56-.54,5.77,5.77,0,0,0-2.55.56,6.42,6.42,0,0,0-2.06,1.56,7.3,7.3,0,0,0-1.37,2.37A8.51,8.51,0,0,0,200.83,30.66Z"/><path class="cls-2" d="M246.68,43h-6.34V29.1a7.25,7.25,0,0,0-1-4.35,3.43,3.43,0,0,0-2.89-1.38,5.48,5.48,0,0,0-1.94.38,7.29,7.29,0,0,0-1.87,1.07A8.45,8.45,0,0,0,231,26.45,6.48,6.48,0,0,0,230,28.53V43h-6.34V18.22h5.73v4.59a9.34,9.34,0,0,1,4-3.69,12.71,12.71,0,0,1,5.87-1.33,7.46,7.46,0,0,1,3.79.85,6.23,6.23,0,0,1,2.27,2.23A9.47,9.47,0,0,1,246.37,24a21,21,0,0,1,.31,3.55Z"/></g><g class="cls-1"><path class="cls-2" d="M268.25,43l-7.19-10.74-3.41,3.36V43h-6.34V8.47h6.34v21l9.94-11.17h6.77l-9.23,10.51L275,43Z"/></g></g><g id="Fragnet_Search" data-name="Fragnet Search" class="cls-1"><g class="cls-1"><path class="cls-3" d="M108.56,70.86a12.93,12.93,0,0,1,.83-4.51,12.09,12.09,0,0,1,6.27-6.83,12,12,0,0,1,5.19-1.09,11.42,11.42,0,0,1,6,1.51,9.68,9.68,0,0,1,3.74,3.94l-3.73,2.56a6.38,6.38,0,0,0-1.19-1.77,6,6,0,0,0-1.51-1.14,6.48,6.48,0,0,0-1.69-.62,7.81,7.81,0,0,0-1.72-.19,6.43,6.43,0,0,0-3.17.74,6.84,6.84,0,0,0-2.25,1.91A8.2,8.2,0,0,0,113.94,68a9.87,9.87,0,0,0-.46,3,9.69,9.69,0,0,0,.53,3.18,8.29,8.29,0,0,0,1.49,2.69,7.39,7.39,0,0,0,2.32,1.86,6.3,6.3,0,0,0,3,.7,7.82,7.82,0,0,0,1.76-.21,6.46,6.46,0,0,0,1.74-.67,6.24,6.24,0,0,0,1.52-1.17,5.4,5.4,0,0,0,1.13-1.74l4,2.28a7.55,7.55,0,0,1-1.71,2.48,11.27,11.27,0,0,1-2.49,1.81,13.41,13.41,0,0,1-6.06,1.51,10.62,10.62,0,0,1-4.88-1.13A12.77,12.77,0,0,1,112,79.66a13.62,13.62,0,0,1-2.49-4.11A12.73,12.73,0,0,1,108.56,70.86Z"/><path class="cls-3" d="M141.57,83.86a10,10,0,0,1-4-.78,9.11,9.11,0,0,1-3-2.09,9.27,9.27,0,0,1-1.91-3,10.2,10.2,0,0,1,0-7.27,9,9,0,0,1,4.95-5.13,10.21,10.21,0,0,1,4-.77,10,10,0,0,1,4,.77,9,9,0,0,1,4.93,5.13,10.2,10.2,0,0,1,0,7.27,9.22,9.22,0,0,1-1.89,3,8.83,8.83,0,0,1-3,2.09A10,10,0,0,1,141.57,83.86Zm-4.81-9.52a6.32,6.32,0,0,0,.37,2.23,5.19,5.19,0,0,0,1,1.74,4.57,4.57,0,0,0,1.52,1.14,4.71,4.71,0,0,0,3.8,0A4.57,4.57,0,0,0,145,78.31a5.19,5.19,0,0,0,1-1.76,6.46,6.46,0,0,0,.37-2.24,6.39,6.39,0,0,0-.37-2.22,5.14,5.14,0,0,0-1-1.75,4.57,4.57,0,0,0-1.52-1.14,4.5,4.5,0,0,0-1.9-.41,4.36,4.36,0,0,0-1.9.42,4.92,4.92,0,0,0-1.52,1.16,5.19,5.19,0,0,0-1,1.76A6.33,6.33,0,0,0,136.76,74.34Z"/><path class="cls-3" d="M182.3,83.51h-4.7V73.18a5.43,5.43,0,0,0-.76-3.23,2.45,2.45,0,0,0-2.09-1A4,4,0,0,0,172.12,70a6,6,0,0,0-1.76,2.79V83.51h-4.7V73.18A5.43,5.43,0,0,0,164.9,70a2.45,2.45,0,0,0-2.09-1A4,4,0,0,0,160.2,70a5.69,5.69,0,0,0-1.77,2.77V83.51h-4.71V65.11H158v3.4a7,7,0,0,1,2.79-2.75,8.26,8.26,0,0,1,4.06-1,5.23,5.23,0,0,1,3.58,1.12A5,5,0,0,1,170,68.69a7.93,7.93,0,0,1,2.85-2.9,7.63,7.63,0,0,1,3.93-1,5.46,5.46,0,0,1,2.77.63,4.54,4.54,0,0,1,1.69,1.65,6.8,6.8,0,0,1,.82,2.32A14.45,14.45,0,0,1,182.3,72Z"/><path class="cls-3" d="M196.8,83.86a7.2,7.2,0,0,1-3.79-1,6.89,6.89,0,0,1-2.53-2.61V91h-4.7V65.11h4.11v3.16a7.46,7.46,0,0,1,2.63-2.55,7.34,7.34,0,0,1,3.72-.93,7.91,7.91,0,0,1,3.44.75,8.76,8.76,0,0,1,2.73,2,9.67,9.67,0,0,1,1.79,3,10.46,10.46,0,0,1,.65,3.67,11.57,11.57,0,0,1-.6,3.76,9.65,9.65,0,0,1-1.67,3,7.69,7.69,0,0,1-2.54,2A7.21,7.21,0,0,1,196.8,83.86Zm-1.58-4a4.24,4.24,0,0,0,1.95-.45,4.83,4.83,0,0,0,1.53-1.23,5.74,5.74,0,0,0,1-1.79,6.28,6.28,0,0,0,.36-2.11,5.92,5.92,0,0,0-.39-2.16,5.48,5.48,0,0,0-1.07-1.74A5.22,5.22,0,0,0,197,69.21a4.84,4.84,0,0,0-2-.42,4.52,4.52,0,0,0-1.37.23,4.74,4.74,0,0,0-1.29.65,5.91,5.91,0,0,0-1.08,1,4.51,4.51,0,0,0-.72,1.23V76.2a6.35,6.35,0,0,0,1.94,2.62A4.39,4.39,0,0,0,195.22,79.85Z"/><path class="cls-3" d="M213,83.86A5.21,5.21,0,0,1,208.71,82a8.43,8.43,0,0,1-1.48-5.41V65.11h4.71V75.6c0,2.84,1,4.25,3.05,4.25a4.8,4.8,0,0,0,2.65-.82,5.92,5.92,0,0,0,2.09-2.51V65.11h4.71v13a1.68,1.68,0,0,0,.26,1.05,1.15,1.15,0,0,0,.86.35v4a10,10,0,0,1-1.17.17c-.32,0-.61,0-.86,0a3.44,3.44,0,0,1-2.06-.58,2.27,2.27,0,0,1-.93-1.6l-.1-1.48a7.85,7.85,0,0,1-3.16,2.85A9.57,9.57,0,0,1,213,83.86Z"/><path class="cls-3" d="M239.5,82.56a20.43,20.43,0,0,1-2.32.84,9.72,9.72,0,0,1-2.87.42,6.89,6.89,0,0,1-1.85-.24,4.28,4.28,0,0,1-1.51-.79,3.82,3.82,0,0,1-1-1.41,5,5,0,0,1-.39-2.09V68.72h-2.42V65.11h2.42v-6h4.71v6h3.86v3.61h-3.86v9a1.7,1.7,0,0,0,.5,1.39,2,2,0,0,0,1.25.4,4.44,4.44,0,0,0,1.44-.24l1.12-.42Z"/><path class="cls-3" d="M246.35,83.86a7,7,0,0,1-2.49-.44,6.28,6.28,0,0,1-2-1.23,5.68,5.68,0,0,1-1.31-1.84,5.57,5.57,0,0,1-.48-2.32,5.2,5.2,0,0,1,.58-2.41,5.6,5.6,0,0,1,1.62-1.88,8.25,8.25,0,0,1,2.47-1.21,10.92,10.92,0,0,1,3.16-.44,13.67,13.67,0,0,1,2.41.21,9.72,9.72,0,0,1,2.09.6V71.85a3.68,3.68,0,0,0-1-2.81,4.28,4.28,0,0,0-3.07-1,8.2,8.2,0,0,0-2.88.53,13.62,13.62,0,0,0-2.88,1.55l-1.44-3a13.6,13.6,0,0,1,7.66-2.35,9,9,0,0,1,6.16,1.95,7.15,7.15,0,0,1,2.19,5.63V78.1a1.61,1.61,0,0,0,.27,1.05,1.13,1.13,0,0,0,.86.35v4a10.78,10.78,0,0,1-2.07.24,3.14,3.14,0,0,1-2.06-.6,2.49,2.49,0,0,1-.89-1.58l-.11-1a8.17,8.17,0,0,1-3,2.45A8.49,8.49,0,0,1,246.35,83.86Zm1.33-3.44A6,6,0,0,0,250,80a4.13,4.13,0,0,0,1.67-1.12,1.7,1.7,0,0,0,.77-1.33V75.43a11.59,11.59,0,0,0-1.83-.51,9.61,9.61,0,0,0-1.89-.19,5,5,0,0,0-3,.82,2.52,2.52,0,0,0-.24,4.07A3.29,3.29,0,0,0,247.68,80.42Z"/><path class="cls-3" d="M271.74,82.56a22,22,0,0,1-2.32.84,9.74,9.74,0,0,1-2.88.42,6.77,6.77,0,0,1-1.84-.24,4.11,4.11,0,0,1-1.51-.79,3.84,3.84,0,0,1-1-1.41,5,5,0,0,1-.39-2.09V68.72h-2.42V65.11h2.42v-6h4.71v6h3.86v3.61h-3.86v9A1.67,1.67,0,0,0,267,79.1a1.92,1.92,0,0,0,1.24.4,4.35,4.35,0,0,0,1.44-.24l1.13-.42Z"/><path class="cls-3" d="M273.56,62.54V57.87h4.71v4.67Zm0,21V65.11h4.71v18.4Z"/><path class="cls-3" d="M290.38,83.86a10,10,0,0,1-4-.78,9,9,0,0,1-3-2.09,9.14,9.14,0,0,1-1.92-3,10.2,10.2,0,0,1,0-7.27,9.07,9.07,0,0,1,4.95-5.13,10.21,10.21,0,0,1,4-.77,10,10,0,0,1,4,.77,9.17,9.17,0,0,1,3,2.09,9.35,9.35,0,0,1,1.92,3,10.34,10.34,0,0,1,0,7.27,9.42,9.42,0,0,1-1.9,3,8.83,8.83,0,0,1-3,2.09A10,10,0,0,1,290.38,83.86Zm-4.81-9.52a6.32,6.32,0,0,0,.37,2.23,5.19,5.19,0,0,0,1,1.74,4.57,4.57,0,0,0,1.52,1.14,4.71,4.71,0,0,0,3.8,0,4.57,4.57,0,0,0,1.52-1.14,5.19,5.19,0,0,0,1-1.76,6.46,6.46,0,0,0,.37-2.24,6.39,6.39,0,0,0-.37-2.22,5.14,5.14,0,0,0-1-1.75,4.57,4.57,0,0,0-1.52-1.14,4.5,4.5,0,0,0-1.9-.41,4.36,4.36,0,0,0-1.9.42A4.92,4.92,0,0,0,287,70.37a5.19,5.19,0,0,0-1,1.76A6.33,6.33,0,0,0,285.57,74.34Z"/><path class="cls-3" d="M319.63,83.51h-4.7V73.18a5.35,5.35,0,0,0-.78-3.23,2.53,2.53,0,0,0-2.14-1,4.18,4.18,0,0,0-1.44.28,5.85,5.85,0,0,0-1.39.79A6.73,6.73,0,0,0,308,71.21a4.79,4.79,0,0,0-.77,1.55V83.51h-4.71V65.11h4.25v3.4a7,7,0,0,1,3-2.74,9.53,9.53,0,0,1,4.35-1,5.54,5.54,0,0,1,2.81.63,4.54,4.54,0,0,1,1.69,1.65,6.8,6.8,0,0,1,.82,2.32,15.4,15.4,0,0,1,.23,2.63Z"/><path class="cls-3" d="M328.13,83.86a7.1,7.1,0,0,1-2.5-.44,6.34,6.34,0,0,1-2-1.23,5.68,5.68,0,0,1-1.31-1.84,5.57,5.57,0,0,1-.48-2.32,5.2,5.2,0,0,1,.58-2.41A5.6,5.6,0,0,1,324,73.74a8.25,8.25,0,0,1,2.47-1.21,10.92,10.92,0,0,1,3.16-.44,13.76,13.76,0,0,1,2.41.21,9.72,9.72,0,0,1,2.09.6V71.85a3.68,3.68,0,0,0-1-2.81,4.28,4.28,0,0,0-3.07-1,8.2,8.2,0,0,0-2.88.53,13.15,13.15,0,0,0-2.88,1.55l-1.44-3a13.57,13.57,0,0,1,7.66-2.35,9,9,0,0,1,6.16,1.95,7.15,7.15,0,0,1,2.19,5.63V78.1a1.61,1.61,0,0,0,.27,1.05,1.13,1.13,0,0,0,.86.35v4a10.79,10.79,0,0,1-2.08.24,3.11,3.11,0,0,1-2.05-.6,2.55,2.55,0,0,1-.9-1.58l-.1-1a8.17,8.17,0,0,1-3,2.45A8.52,8.52,0,0,1,328.13,83.86Zm1.33-3.44a6,6,0,0,0,2.27-.43,4,4,0,0,0,1.66-1.12,1.68,1.68,0,0,0,.78-1.33V75.43a11.59,11.59,0,0,0-1.83-.51,9.69,9.69,0,0,0-1.89-.19,5,5,0,0,0-3,.82,2.52,2.52,0,0,0-.24,4.07A3.27,3.27,0,0,0,329.46,80.42Z"/><path class="cls-3" d="M342.59,57.87h4.71V77.61a2.32,2.32,0,0,0,.49,1.58,1.79,1.79,0,0,0,1.41.56,3.69,3.69,0,0,0,.93-.14,6.79,6.79,0,0,0,1-.35l.63,3.58a9.11,9.11,0,0,1-2.21.7,12.37,12.37,0,0,1-2.28.25,4.7,4.7,0,0,1-3.42-1.18,4.44,4.44,0,0,1-1.22-3.35Z"/><path class="cls-3" d="M365.14,67.53v16h-4.85V58.57h3.76l13,16.37V58.61h4.85v24.9H378Z"/><path class="cls-3" d="M394.25,83.86a10,10,0,0,1-4-.78,8.91,8.91,0,0,1-3-2.09,9.11,9.11,0,0,1-1.91-3,10.2,10.2,0,0,1,0-7.27,9.16,9.16,0,0,1,1.91-3,9.05,9.05,0,0,1,3-2.09,10.93,10.93,0,0,1,8.06,0,9,9,0,0,1,4.93,5.13,10.2,10.2,0,0,1,0,7.27,9.25,9.25,0,0,1-1.9,3,8.64,8.64,0,0,1-3,2.09A10,10,0,0,1,394.25,83.86Zm-4.81-9.52a6.56,6.56,0,0,0,.36,2.23,5.55,5.55,0,0,0,1,1.74,4.71,4.71,0,0,0,1.53,1.14,4.5,4.5,0,0,0,1.9.4,4.42,4.42,0,0,0,1.89-.4,4.51,4.51,0,0,0,1.53-1.14,5.54,5.54,0,0,0,1-1.76,6.7,6.7,0,0,0,.37-2.24,6.63,6.63,0,0,0-.37-2.22,5.49,5.49,0,0,0-1-1.75,4.51,4.51,0,0,0-1.53-1.14,4.43,4.43,0,0,0-1.89-.41,4.36,4.36,0,0,0-1.9.42,5.08,5.08,0,0,0-1.53,1.16,5.54,5.54,0,0,0-1,1.76A6.57,6.57,0,0,0,389.44,74.34Z"/><path class="cls-3" d="M417.18,82.56a22,22,0,0,1-2.32.84,9.74,9.74,0,0,1-2.88.42,6.77,6.77,0,0,1-1.84-.24,4.11,4.11,0,0,1-1.51-.79,3.84,3.84,0,0,1-1-1.41,5,5,0,0,1-.39-2.09V68.72h-2.42V65.11h2.42v-6h4.71v6h3.86v3.61h-3.86v9a1.67,1.67,0,0,0,.51,1.39,1.92,1.92,0,0,0,1.24.4,4.35,4.35,0,0,0,1.44-.24l1.13-.42Z"/><path class="cls-3" d="M427.08,83.86a10.22,10.22,0,0,1-4-.76,9.14,9.14,0,0,1-3.06-2,9.34,9.34,0,0,1-1.95-3,9.86,9.86,0,0,1-.68-3.62,10.33,10.33,0,0,1,.66-3.7A9.06,9.06,0,0,1,420,67.65a9.18,9.18,0,0,1,3.07-2.09,10.3,10.3,0,0,1,4.05-.77,10,10,0,0,1,4,.77,9.32,9.32,0,0,1,3,2.07,8.89,8.89,0,0,1,1.9,3,10.14,10.14,0,0,1,.65,3.59c0,.3,0,.59,0,.87a3.33,3.33,0,0,1-.09.71H422.37a5.49,5.49,0,0,0,.53,1.93A4.73,4.73,0,0,0,424,79.19a4.83,4.83,0,0,0,1.51.91,4.93,4.93,0,0,0,1.75.32,5.44,5.44,0,0,0,2.66-.69,3.66,3.66,0,0,0,1.7-1.81l4,1.13a8.26,8.26,0,0,1-3.25,3.45A10,10,0,0,1,427.08,83.86Zm4.77-11.1a4.86,4.86,0,0,0-1.52-3.32,5,5,0,0,0-5.06-.91,4.55,4.55,0,0,0-1.46.93,4.9,4.9,0,0,0-1,1.44,5.1,5.1,0,0,0-.48,1.86Z"/><path class="cls-3" d="M449.41,83.86a7.45,7.45,0,0,1-3.76-1,6.88,6.88,0,0,1-2.59-2.6v3.2H439V57.87h4.7V68.34a7.13,7.13,0,0,1,2.58-2.62,7.31,7.31,0,0,1,3.74-.93,7,7,0,0,1,3.27.77,8.33,8.33,0,0,1,2.54,2.07,9.2,9.2,0,0,1,1.65,3.06,11.59,11.59,0,0,1,.58,3.69,10.32,10.32,0,0,1-.65,3.72,9.23,9.23,0,0,1-1.8,3,8.52,8.52,0,0,1-2.74,2A8,8,0,0,1,449.41,83.86Zm-1.3-4a4.75,4.75,0,0,0,2.07-.44,4.92,4.92,0,0,0,1.62-1.17,5.33,5.33,0,0,0,1-1.72,5.89,5.89,0,0,0,.37-2.11,6.36,6.36,0,0,0-.35-2.14,5.49,5.49,0,0,0-1-1.79,4.78,4.78,0,0,0-1.53-1.23,4.16,4.16,0,0,0-1.93-.46,4.3,4.3,0,0,0-2.82,1,6.88,6.88,0,0,0-1.92,2.54v4.39a4.31,4.31,0,0,0,.72,1.27,5.41,5.41,0,0,0,1.07,1,5,5,0,0,0,1.3.63A4.23,4.23,0,0,0,448.11,79.85Z"/><path class="cls-3" d="M469.07,83.86a10,10,0,0,1-4-.78A8.91,8.91,0,0,1,462,81a9.3,9.3,0,0,1-1.92-3,10.34,10.34,0,0,1,0-7.27,9.35,9.35,0,0,1,1.92-3,9.05,9.05,0,0,1,3-2.09,10.16,10.16,0,0,1,4-.77,10,10,0,0,1,4,.77,9.07,9.07,0,0,1,3,2.09,9.18,9.18,0,0,1,1.92,3A10.2,10.2,0,0,1,478,78a9.42,9.42,0,0,1-1.9,3,8.73,8.73,0,0,1-3,2.09A10,10,0,0,1,469.07,83.86Zm-4.81-9.52a6.56,6.56,0,0,0,.37,2.23,5.55,5.55,0,0,0,1,1.74,4.51,4.51,0,0,0,1.53,1.14,4.42,4.42,0,0,0,1.89.4,4.5,4.5,0,0,0,1.9-.4,4.71,4.71,0,0,0,1.53-1.14,5.54,5.54,0,0,0,1-1.76,6.7,6.7,0,0,0,.36-2.24,6.63,6.63,0,0,0-.36-2.22,5.49,5.49,0,0,0-1-1.75A4.71,4.71,0,0,0,471,69.2a4.5,4.5,0,0,0-1.9-.41,4.29,4.29,0,0,0-1.89.42,4.85,4.85,0,0,0-1.53,1.16,5.54,5.54,0,0,0-1,1.76A6.57,6.57,0,0,0,464.26,74.34Z"/><path class="cls-3" d="M489.72,83.86a10,10,0,0,1-4-.78,9,9,0,0,1-3-2.09,9.14,9.14,0,0,1-1.92-3,10.2,10.2,0,0,1,0-7.27,9.07,9.07,0,0,1,4.95-5.13,10.21,10.21,0,0,1,4-.77,10,10,0,0,1,4,.77,9.17,9.17,0,0,1,3,2.09,9.35,9.35,0,0,1,1.92,3,10.34,10.34,0,0,1,0,7.27,9.42,9.42,0,0,1-1.9,3,8.83,8.83,0,0,1-3,2.09A10,10,0,0,1,489.72,83.86Zm-4.81-9.52a6.32,6.32,0,0,0,.37,2.23,5.19,5.19,0,0,0,1,1.74,4.57,4.57,0,0,0,1.52,1.14,4.71,4.71,0,0,0,3.8,0,4.57,4.57,0,0,0,1.52-1.14,5.19,5.19,0,0,0,1-1.76,6.46,6.46,0,0,0,.37-2.24,6.39,6.39,0,0,0-.37-2.22,5.14,5.14,0,0,0-1-1.75,4.57,4.57,0,0,0-1.52-1.14,4.5,4.5,0,0,0-1.9-.41,4.36,4.36,0,0,0-1.9.42,4.92,4.92,0,0,0-1.52,1.16,5.19,5.19,0,0,0-1,1.76A6.33,6.33,0,0,0,484.91,74.34Z"/><path class="cls-3" d="M514.44,83.51l-5.34-8L506.57,78v5.48h-4.7V57.87h4.7V73.43L514,65.14h5l-6.85,7.8,7.34,10.57Z"/></g></g><g id="Group_8" data-name="Group 8"><g id="Group_1" data-name="Group 1"><path id="Path_1" data-name="Path 1" class="cls-2" d="M45.74,20.61a2,2,0,0,1-1.72-1,19,19,0,0,1-1.8-15.57,2,2,0,0,1,3.83,1.26,14.86,14.86,0,0,0,1.41,12.22,2,2,0,0,1-.67,2.77,2,2,0,0,1-1,.29"/><path id="Path_2" data-name="Path 2" class="cls-2" d="M48.71,16.08h0a2,2,0,0,1-2-2,14.58,14.58,0,0,1,2-7.2,13.18,13.18,0,0,1,5.14-4.63,2,2,0,1,1,1.94,3.52l-.06,0A9.18,9.18,0,0,0,52.12,9a10.72,10.72,0,0,0-1.4,5.13,2,2,0,0,1-2,2"/><path id="Path_3" data-name="Path 3" class="cls-2" d="M54.46,15.79a2,2,0,0,1-2-2,1.76,1.76,0,0,1,.1-.6c1.2-3.79,5.4-6.93,8.76-7.78a2,2,0,0,1,1,3.9c-2.21.56-5.18,2.79-5.92,5.1a2,2,0,0,1-1.91,1.4"/><path id="Path_4" data-name="Path 4" class="cls-4" d="M26.26,26.36S34.17,16.52,44.59,15,63.5,16.52,66.2,18.07s7.33,5,9.64,8.3,9.65,15.43,10.8,18.52a21.89,21.89,0,0,1,1.93,9.26,24.05,24.05,0,0,1-3.08,10.79c-1.16,1.94-5.6,6.57-8.49,7.92a62,62,0,0,1-7.91,2.7c-.58.2-36.85,0-36.85,0s-4.83-1.54-7-2.5-6.95-5.25-9.07-8.12a19,19,0,0,1-3.28-11,24.88,24.88,0,0,1,3.47-12c1.93-3.08,9.84-15.63,9.84-15.63"/><path id="Path_5" data-name="Path 5" class="cls-2" d="M58.12,77.24c-5.5,0-13.68,0-25.89-.09a1.59,1.59,0,0,1-.48-.07c-.2-.07-4.94-1.59-7.12-2.58-2.43-1.1-7.41-5.54-9.69-8.62A20.48,20.48,0,0,1,11.35,54a26.31,26.31,0,0,1,3.72-12.8c1.91-3.06,9.76-15.51,9.84-15.64l.11-.15c.33-.42,8.42-10.34,19.33-12C55,11.83,63.8,14.86,67,16.68c2.67,1.53,7.59,5.13,10.15,8.76,2.43,3.44,9.77,15.59,11,18.88l.1.27a23.09,23.09,0,0,1,1.94,9.55,25.66,25.66,0,0,1-3.31,11.6c-1.24,2.08-5.86,7-9.19,8.56a56.25,56.25,0,0,1-7.46,2.59l-.62.18c-.22.07-.52.17-11.47.17M32.49,74c13.72.07,34.24.14,36.28,0l.56-.16a53.54,53.54,0,0,0,7-2.41c2.57-1.2,6.8-5.63,7.79-7.3a22.32,22.32,0,0,0,2.87-10,20.06,20.06,0,0,0-1.73-8.43l-.1-.27c-1-2.79-8.13-14.65-10.61-18.16-2.25-3.19-6.8-6.5-9.14-7.83s-10.48-4.39-20.59-2.89c-9.26,1.37-16.58,9.91-17.27,10.74-.7,1.1-8,12.62-9.78,15.53A23.34,23.34,0,0,0,14.53,54a17.34,17.34,0,0,0,3,10c2,2.74,6.69,6.81,8.45,7.61s5.57,2.05,6.54,2.37"/><path id="Path_6" data-name="Path 6" class="cls-2" d="M15.71,63.75c-4.27,4.3-5.83,11-6.38,15.3a2,2,0,1,0,4,.51c.46-3.62,1.69-9.16,4.95-12.66a13.2,13.2,0,0,1-2.56-3.15"/><path id="Path_7" data-name="Path 7" class="cls-2" d="M13.91,58.22a13.82,13.82,0,0,1-1-4.61c-4,3.52-6.34,8.8-7.56,12.46a2,2,0,1,0,3.79,1.36.19.19,0,0,0,0-.08,28.44,28.44,0,0,1,4.77-9s0-.06,0-.09"/><path id="Path_8" data-name="Path 8" class="cls-2" d="M17.1,41.5C10.11,42.7,5,49.13,2.31,53.36a2,2,0,0,0,3.33,2.27l.07-.12c1.83-2.9,5-7,9.05-9a11.91,11.91,0,0,1,2.34-5"/><path id="Path_9" data-name="Path 9" class="cls-2" d="M91.65,79c-.54-4.21-2-10.62-6-14.93a11.75,11.75,0,0,1-1.92,4c2.52,3.48,3.53,8.22,3.94,11.44a2,2,0,0,0,4-.51"/><path id="Path_10" data-name="Path 10" class="cls-2" d="M95.64,66.07c-1.31-3.9-3.88-9.66-8.38-13.15a14.35,14.35,0,0,1,.61,3.5,10.67,10.67,0,0,1-.22,2.64,29.49,29.49,0,0,1,4.17,8.29,2,2,0,0,0,3.82-1.28"/><path id="Path_11" data-name="Path 11" class="cls-2" d="M99.11,52.45c-2.72-3.88-7.72-9.64-14.23-11a13.68,13.68,0,0,1,2.21,5c3.8,1.92,6.88,5.61,8.72,8.25a2,2,0,0,0,3.3-2.31"/><path id="Path_12" data-name="Path 12" class="cls-3" d="M72.4,48.79c-.12.35-.27.7-.43,1.06-1.66,3.74,1.33,8.34,5.29,8.9a6.79,6.79,0,0,0,5.18-1.49c4.9-4,0-10.64-4.36-12.48-1-.41-6.07-3.13-6.75-2.12-.39.56.5,1.36.75,1.77a4.76,4.76,0,0,1,.32,4.37"/><path id="Path_13" data-name="Path 13" class="cls-3" d="M28.63,48.79c.12.35.26.7.42,1.06,1.67,3.74-1.33,8.34-5.29,8.9a6.75,6.75,0,0,1-5.17-1.49c-4.91-4,0-10.64,4.35-12.48,1-.41,6.07-3.13,6.76-2.12.39.56-.5,1.36-.75,1.77a4.76,4.76,0,0,0-.32,4.37"/><path id="Path_14" data-name="Path 14" class="cls-2" d="M40.27,34.62A5.24,5.24,0,1,1,35,29.38a5.24,5.24,0,0,1,5.24,5.24h0"/><path id="Path_15" data-name="Path 15" class="cls-2" d="M72.7,34.62a5.24,5.24,0,1,1-5.24-5.24h0a5.25,5.25,0,0,1,5.24,5.24"/><path id="Path_16" data-name="Path 16" class="cls-2" d="M29.07,68.74a2,2,0,0,1-1.24-3.6,38.55,38.55,0,0,1,22.43-8.22A36.71,36.71,0,0,1,73,63.64a2,2,0,0,1-2.33,3.28c-11.89-8.42-28.47-7.85-40.31,1.39a2,2,0,0,1-1.24.43"/><path id="Path_17" data-name="Path 17" class="cls-4" d="M59.11,45.6l12,38.53H30.05L41.25,45.6"/><path id="Path_18" data-name="Path 18" class="cls-2" d="M71.12,86.14H30.05a2,2,0,0,1-2-2,2.1,2.1,0,0,1,.08-.56L39.32,45a2,2,0,0,1,3.86,1.12l-10.45,36H68.38L57.18,46.2A2,2,0,0,1,61,45L73,83.53a2,2,0,0,1-1.32,2.52,2,2,0,0,1-.6.09"/><path id="Path_19" data-name="Path 19" class="cls-2" d="M42.71,68.48a2,2,0,0,1-1.2-3.63,16.06,16.06,0,0,1,18-.72,2,2,0,1,1-2.16,3.4,12.17,12.17,0,0,0-13.48.56,1.91,1.91,0,0,1-1.19.39"/><path id="Path_20" data-name="Path 20" class="cls-2" d="M45.35,57.16a2,2,0,0,1-1.23-3.6A11,11,0,0,1,56.94,53a2,2,0,0,1-2.14,3.41l-.09-.06a7.06,7.06,0,0,0-8.13.36,2,2,0,0,1-1.23.42"/><path id="Path_21" data-name="Path 21" class="cls-4" d="M50.54,95.39c-11.9,0-20.88-4.67-20.88-10.86s9-10.86,20.88-10.86,20.88,4.67,20.88,10.86-9,10.86-20.88,10.86"/><path id="Path_22" data-name="Path 22" class="cls-2" d="M50.54,75.69c10.42,0,18.87,4,18.87,8.84S61,93.37,50.54,93.37s-18.87-4-18.87-8.84,8.45-8.84,18.87-8.84m0-4a36.38,36.38,0,0,0-15,3c-6.82,3.2-7.84,7.58-7.84,9.9s1,6.7,7.84,9.9a36.38,36.38,0,0,0,15,3,36.38,36.38,0,0,0,15.05-3c6.82-3.2,7.84-7.57,7.84-9.9s-1-6.7-7.84-9.9a36.38,36.38,0,0,0-15.05-3"/><path id="Path_23" data-name="Path 23" class="cls-4" d="M34.85,23.92c-1.27-1.9-2.6-5.12-2.94-10.45a8.92,8.92,0,0,0-.09-2.63,5.86,5.86,0,0,0-1.55-3.06c-3.48-3.48-11.14-1.46-17.1,4.5s-8,13.63-4.5,17.1a6.39,6.39,0,0,0,4.61,1.7h0c.31,0,.63,0,1,0,6.83-.27,8.26.53,11.23,3"/><path id="Path_24" data-name="Path 24" class="cls-2" d="M25.46,35.62a1.6,1.6,0,0,1-1-.36c-2.54-2.1-3.49-2.89-10.12-2.63-.34,0-.69,0-1.06,0a8,8,0,0,1-5.73-2.17C3.37,26.35,5.35,17.85,12,11.16A23.31,23.31,0,0,1,22.24,5c3.8-1,7.05-.39,9.15,1.71a7.28,7.28,0,0,1,2,3.87,10.15,10.15,0,0,1,.13,3c.35,5.1,1.64,8,2.67,9.54a1.59,1.59,0,1,1-2.65,1.77c-1.82-2.73-2.9-6.51-3.2-11.23a1.13,1.13,0,0,1,0-.26,7.53,7.53,0,0,0-.07-2.17,4.26,4.26,0,0,0-1.11-2.23C27.88,7.65,25.71,7.33,23.05,8a20.25,20.25,0,0,0-8.76,5.38C9.05,18.66,7,25.46,9.79,28.26a4.77,4.77,0,0,0,3.49,1.23q.42,0,.81,0h.08c7.23-.29,9,.64,12.31,3.35A1.6,1.6,0,0,1,26.69,35a1.58,1.58,0,0,1-1.23.58"/><path id="Path_25" data-name="Path 25" class="cls-4" d="M65.67,23c1.26-1.9,2.59-5.12,2.94-10.45A8.92,8.92,0,0,1,68.7,10,5.79,5.79,0,0,1,70.25,6.9c3.48-3.48,11.13-1.46,17.1,4.5s8,13.63,4.5,17.1a6.39,6.39,0,0,1-4.61,1.7h0c-.31,0-.63,0-1,0-6.83-.27-8.26.53-11.23,3"/><path id="Path_26" data-name="Path 26" class="cls-2" d="M75.05,34.74a1.6,1.6,0,0,1-1.59-1.6A1.57,1.57,0,0,1,74,31.92c3.28-2.71,5.08-3.63,12.3-3.35h.09c.25,0,.52,0,.8,0a4.71,4.71,0,0,0,3.49-1.23c2.8-2.8.75-9.6-4.5-14.85a20.18,20.18,0,0,0-8.76-5.37c-2.66-.7-4.82-.39-6.09.87a4.25,4.25,0,0,0-1.11,2.24,7.45,7.45,0,0,0-.07,2.16,1.22,1.22,0,0,1,0,.27c-.31,4.72-1.38,8.5-3.2,11.23a1.59,1.59,0,1,1-2.65-1.77c1-1.54,2.32-4.44,2.67-9.54a10.48,10.48,0,0,1,.12-3,7.36,7.36,0,0,1,2-3.88c2.1-2.1,5.35-2.71,9.15-1.7a23.44,23.44,0,0,1,10.2,6.2C95.16,17,97.14,25.47,93,29.64a8,8,0,0,1-5.73,2.16c-.37,0-.72,0-1.07,0-6.62-.26-7.57.52-10.11,2.62a1.6,1.6,0,0,1-1,.36"/><path id="Path_27" data-name="Path 27" class="cls-2" d="M14,26.84a2,2,0,0,1-2-2,2.43,2.43,0,0,1,0-.38A17.36,17.36,0,0,1,24.19,11.24a2,2,0,0,1,1.07,3.87A13.43,13.43,0,0,0,16,25.21a2,2,0,0,1-2,1.64"/><path id="Path_28" data-name="Path 28" class="cls-2" d="M85.73,26a2,2,0,0,1-2-1.63,13.42,13.42,0,0,0-9.25-10.09,2,2,0,0,1,1-3.89h0A17.33,17.33,0,0,1,87.71,23.57a2,2,0,0,1-1.6,2.36,2.43,2.43,0,0,1-.38,0"/><path id="Path_29" data-name="Path 29" class="cls-2" d="M50.48,86.94c-5.33,0-8.88-1.22-10.79-2.28a1.07,1.07,0,0,1,0-1.87c1.91-1.06,5.46-2.27,10.79-2.27s8.88,1.21,10.79,2.27a1.07,1.07,0,0,1,0,1.87c-1.92,1.06-5.46,2.28-10.79,2.28"/></g></g></svg>