<svg id="Layer_1" data-name="Layer 1" xmlns="http://www.w3.org/2000/svg" viewBox="0 0 356.02 99.38"><defs><style>.cls-1{isolation:isolate;}.cls-2{fill:#fff;}.cls-3{fill:#626367;}</style></defs><g id="Squonk" class="cls-1"><g class="cls-1"><path class="cls-2" d="M131,18.22a7.91,7.91,0,0,0-1.21-.9,14.24,14.24,0,0,0-2.12-1.11,18.59,18.59,0,0,0-2.73-.93,11.94,11.94,0,0,0-3-.38,6.7,6.7,0,0,0-4,1,3.28,3.28,0,0,0-1.32,2.79,2.9,2.9,0,0,0,.49,1.73,4.41,4.41,0,0,0,1.45,1.2,11.52,11.52,0,0,0,2.39.95q1.44.42,3.33.9a46.49,46.49,0,0,1,4.47,1.42,12,12,0,0,1,3.41,1.89,7.75,7.75,0,0,1,2.15,2.72,9,9,0,0,1,.76,3.91A9.72,9.72,0,0,1,134,38a8.56,8.56,0,0,1-2.74,3.1,11.84,11.84,0,0,1-4,1.72,19.46,19.46,0,0,1-4.7.55,25.19,25.19,0,0,1-7.48-1.14A23,23,0,0,1,108.52,39l2.88-5.63a9.93,9.93,0,0,0,1.54,1.11,25.22,25.22,0,0,0,2.63,1.37,20.65,20.65,0,0,0,3.36,1.16,15.41,15.41,0,0,0,3.78.47q5.4,0,5.4-3.45a2.85,2.85,0,0,0-.62-1.85,5.26,5.26,0,0,0-1.75-1.32,16.08,16.08,0,0,0-2.75-1c-1.07-.32-2.27-.67-3.59-1a31.6,31.6,0,0,1-4.19-1.45,11.07,11.07,0,0,1-3-1.84,7,7,0,0,1-1.77-2.46,8.63,8.63,0,0,1-.59-3.34,10.44,10.44,0,0,1,.94-4.54,9.21,9.21,0,0,1,2.63-3.31,11.64,11.64,0,0,1,3.9-2,16.1,16.1,0,0,1,4.78-.69,18.53,18.53,0,0,1,6.53,1.11,24.39,24.39,0,0,1,5.21,2.63Z"/><path class="cls-2" d="M147.84,43.48a9.55,9.55,0,0,1-4.36-1,10.78,10.78,0,0,1-3.43-2.77,13.16,13.16,0,0,1-2.25-4.09,15.66,15.66,0,0,1-.8-5,14,14,0,0,1,.88-5,12.71,12.71,0,0,1,2.43-4.05A11.56,11.56,0,0,1,144,18.78a10.76,10.76,0,0,1,4.59-1,9.56,9.56,0,0,1,5,1.3,10.78,10.78,0,0,1,3.55,3.43v-4.3h5.53V45.47a2.11,2.11,0,0,0,.38,1.44,1.89,1.89,0,0,0,1.33.45v5.4c-.54.09-1.12.16-1.75.21s-1.2.07-1.71.07a4.72,4.72,0,0,1-1.77-.33,4.67,4.67,0,0,1-1.45-.9,4.45,4.45,0,0,1-1-1.35,3.91,3.91,0,0,1-.38-1.72V38.66a9.23,9.23,0,0,1-3.55,3.62A10.09,10.09,0,0,1,147.84,43.48Zm2.36-5.39A5.73,5.73,0,0,0,153.75,37a10,10,0,0,0,2.6-2.93V28.15a6.06,6.06,0,0,0-.92-1.94,8,8,0,0,0-1.49-1.58,6.86,6.86,0,0,0-1.85-1.07,5.55,5.55,0,0,0-2-.37,5.84,5.84,0,0,0-2.68.61,6.48,6.48,0,0,0-2.08,1.68A8.19,8.19,0,0,0,144,27.92a8.28,8.28,0,0,0-.5,2.84,8.14,8.14,0,0,0,.5,2.88A7.34,7.34,0,0,0,145.35,36a6.31,6.31,0,0,0,2.11,1.56A6.43,6.43,0,0,0,150.2,38.09Z"/></g><g class="cls-1"><path class="cls-2" d="M175.14,43.48A7,7,0,0,1,169.32,41q-2-2.46-2-7.28V18.22h6.34V32.36q0,5.73,4.11,5.73A6.52,6.52,0,0,0,181.36,37a7.93,7.93,0,0,0,2.81-3.39V18.22h6.34v17.5a2.18,2.18,0,0,0,.36,1.42,1.55,1.55,0,0,0,1.16.48V43a14.44,14.44,0,0,1-1.59.24c-.42,0-.81,0-1.16,0a4.59,4.59,0,0,1-2.77-.78,3.07,3.07,0,0,1-1.25-2.15l-.14-2a10.67,10.67,0,0,1-4.26,3.84A12.8,12.8,0,0,1,175.14,43.48Z"/></g><g class="cls-1"><path class="cls-2" d="M207.31,43.48a13.5,13.5,0,0,1-5.44-1,12.17,12.17,0,0,1-4.09-2.81,12.5,12.5,0,0,1-2.58-4.1,13.32,13.32,0,0,1-.9-4.87,13.51,13.51,0,0,1,.9-4.92,12.35,12.35,0,0,1,2.58-4.09,12.19,12.19,0,0,1,4.09-2.82,13.67,13.67,0,0,1,5.44-1,13.5,13.5,0,0,1,5.42,1,12.25,12.25,0,0,1,6.65,6.91,13.51,13.51,0,0,1,.9,4.92,13.32,13.32,0,0,1-.9,4.87,12.61,12.61,0,0,1-2.56,4.1,11.89,11.89,0,0,1-4.07,2.81A13.5,13.5,0,0,1,207.31,43.48Zm-6.48-12.82a8.45,8.45,0,0,0,.5,3A7.26,7.26,0,0,0,202.7,36a6.23,6.23,0,0,0,2.06,1.54,6.31,6.31,0,0,0,5.11,0,6.29,6.29,0,0,0,2-1.54,7.11,7.11,0,0,0,1.38-2.37,9.46,9.46,0,0,0,0-6,7.17,7.17,0,0,0-1.38-2.36,6,6,0,0,0-2-1.54,6.09,6.09,0,0,0-2.56-.54,5.77,5.77,0,0,0-2.55.56,6.42,6.42,0,0,0-2.06,1.56,7.3,7.3,0,0,0-1.37,2.37A8.51,8.51,0,0,0,200.83,30.66Z"/><path class="cls-2" d="M246.68,43h-6.34V29.1a7.25,7.25,0,0,0-1-4.35,3.43,3.43,0,0,0-2.89-1.38,5.48,5.48,0,0,0-1.94.38,7.29,7.29,0,0,0-1.87,1.07A8.45,8.45,0,0,0,231,26.45,6.48,6.48,0,0,0,230,28.53V43h-6.34V18.22h5.73v4.59a9.34,9.34,0,0,1,4-3.69,12.71,12.71,0,0,1,5.87-1.33,7.46,7.46,0,0,1,3.79.85,6.23,6.23,0,0,1,2.27,2.23A9.47,9.47,0,0,1,246.37,24a21,21,0,0,1,.31,3.55Z"/></g><g class="cls-1"><path class="cls-2" d="M268.25,43l-7.19-10.74-3.41,3.36V43h-6.34V8.47h6.34v21l9.94-11.17h6.77l-9.23,10.51L275,43Z"/></g></g><g id="Fragnet_Search" data-name="Fragnet Search" class="cls-1"><g class="cls-1"><path class="cls-2" d="M110.07,83.51V58.57h16.75v4.25h-11.9v6.43h9.9v3.93h-9.9V83.51Z"/><path class="cls-2" d="M138.73,69.18a9.32,9.32,0,0,0-3.83.82,4.86,4.86,0,0,0-2.42,2.37V83.51h-4.71V65.11h4.32V69a8.22,8.22,0,0,1,1.16-1.7A8.12,8.12,0,0,1,134.69,66a6.35,6.35,0,0,1,1.56-.86,4.33,4.33,0,0,1,1.53-.3h.58a1.5,1.5,0,0,1,.37,0Z"/><path class="cls-2" d="M145.5,83.86a7,7,0,0,1-2.49-.44,6.06,6.06,0,0,1-2-1.23,5.87,5.87,0,0,1-1.32-1.84,5.73,5.73,0,0,1-.47-2.32,5.08,5.08,0,0,1,.58-2.41,5.46,5.46,0,0,1,1.61-1.88,8.31,8.31,0,0,1,2.48-1.21,10.87,10.87,0,0,1,3.16-.44,13.56,13.56,0,0,1,2.4.21,9.56,9.56,0,0,1,2.09.6V71.85a3.68,3.68,0,0,0-1-2.81,4.29,4.29,0,0,0-3.07-1,8.11,8.11,0,0,0-2.88.52,13.15,13.15,0,0,0-2.88,1.55l-1.44-3a13.54,13.54,0,0,1,7.65-2.35,9,9,0,0,1,6.16,1.95,7.12,7.12,0,0,1,2.2,5.63V78.1a1.68,1.68,0,0,0,.26,1.05,1.15,1.15,0,0,0,.86.35v4a10.61,10.61,0,0,1-2.07.24,3.11,3.11,0,0,1-2.05-.6,2.55,2.55,0,0,1-.9-1.58l-.1-1a8.2,8.2,0,0,1-3,2.45A8.46,8.46,0,0,1,145.5,83.86Zm1.34-3.44A6.14,6.14,0,0,0,149.1,80a4.06,4.06,0,0,0,1.67-1.12,1.67,1.67,0,0,0,.77-1.33V75.43a11.76,11.76,0,0,0-1.82-.51,9.79,9.79,0,0,0-1.9-.19,5,5,0,0,0-3,.82,2.47,2.47,0,0,0-1.16,2.09,2.52,2.52,0,0,0,.91,2A3.36,3.36,0,0,0,146.84,80.42Z"/><path class="cls-2" d="M167.2,83.61a7.61,7.61,0,0,1-3.37-.74,8,8,0,0,1-2.61-2,9.15,9.15,0,0,1-1.71-3,11.26,11.26,0,0,1,0-7.31,9.75,9.75,0,0,1,1.76-3,8,8,0,0,1,2.7-2,8.13,8.13,0,0,1,3.48-.74,7.1,7.1,0,0,1,3.75,1,8,8,0,0,1,2.67,2.58V65.11H178V82.63a8.46,8.46,0,0,1-.77,3.65A8.08,8.08,0,0,1,175.12,89a9.51,9.51,0,0,1-3.23,1.72,13.34,13.34,0,0,1-4.09.6,11.48,11.48,0,0,1-5.07-1,10.12,10.12,0,0,1-3.53-2.82L161.76,85a7.34,7.34,0,0,0,2.65,2,8.05,8.05,0,0,0,3.39.74,7.23,7.23,0,0,0,2.09-.3,5,5,0,0,0,1.77-.93,4.34,4.34,0,0,0,1.22-1.62,5.64,5.64,0,0,0,.43-2.31V80.31a6.15,6.15,0,0,1-2.56,2.44A7.6,7.6,0,0,1,167.2,83.61Zm1.58-3.76a4.55,4.55,0,0,0,1.48-.24,5.51,5.51,0,0,0,1.3-.67,5.16,5.16,0,0,0,1.05-1,4.18,4.18,0,0,0,.7-1.2V72.37a5.69,5.69,0,0,0-2-2.59,4.71,4.71,0,0,0-2.83-1,4,4,0,0,0-2,.48A4.69,4.69,0,0,0,165,70.53a5.73,5.73,0,0,0-1,1.81,6.8,6.8,0,0,0-.33,2.11,5.8,5.8,0,0,0,.38,2.1,5.34,5.34,0,0,0,1.08,1.72,4.8,4.8,0,0,0,1.59,1.16A4.75,4.75,0,0,0,168.78,79.85Z"/><path class="cls-2" d="M198.74,83.51H194V73.18a5.43,5.43,0,0,0-.77-3.23,2.54,2.54,0,0,0-2.14-1,4.18,4.18,0,0,0-1.44.28,5.48,5.48,0,0,0-1.39.79,6.52,6.52,0,0,0-1.18,1.22,4.64,4.64,0,0,0-.77,1.54V83.51h-4.7V65.11h4.24v3.4a7.05,7.05,0,0,1,3-2.74,9.55,9.55,0,0,1,4.36-1,5.59,5.59,0,0,1,2.81.63,4.59,4.59,0,0,1,1.68,1.65,6.81,6.81,0,0,1,.83,2.32,15.4,15.4,0,0,1,.23,2.63Z"/><path class="cls-2" d="M210.74,83.86a10.29,10.29,0,0,1-4-.76,9.2,9.2,0,0,1-3.05-2,9,9,0,0,1-1.95-3,9.67,9.67,0,0,1-.69-3.62,10.34,10.34,0,0,1,.67-3.7,9,9,0,0,1,1.93-3.06,9.28,9.28,0,0,1,3.07-2.09,10.35,10.35,0,0,1,4.06-.77,10,10,0,0,1,4,.77,9.43,9.43,0,0,1,3,2.07,9,9,0,0,1,1.9,3,10.14,10.14,0,0,1,.65,3.59c0,.3,0,.59,0,.87a3.33,3.33,0,0,1-.09.71H206a5.49,5.49,0,0,0,.53,1.93,4.86,4.86,0,0,0,1.08,1.44,5,5,0,0,0,1.51.91,5,5,0,0,0,1.76.32,5.37,5.37,0,0,0,2.65-.69,3.62,3.62,0,0,0,1.7-1.81l4,1.13a8.2,8.2,0,0,1-3.25,3.45A10,10,0,0,1,210.74,83.86Zm4.78-11.1A4.92,4.92,0,0,0,214,69.44a4.65,4.65,0,0,0-3.28-1.24,4.72,4.72,0,0,0-1.77.33,4.55,4.55,0,0,0-1.46.93,4.92,4.92,0,0,0-1,1.44,5.1,5.1,0,0,0-.47,1.86Z"/><path class="cls-2" d="M233.5,82.56a21.17,21.17,0,0,1-2.32.84,9.74,9.74,0,0,1-2.88.42,6.82,6.82,0,0,1-1.84-.24,4.11,4.11,0,0,1-1.51-.79,3.84,3.84,0,0,1-1-1.41,5,5,0,0,1-.38-2.09V68.72H221.1V65.11h2.43v-6h4.7v6h3.86v3.61h-3.86v9a1.67,1.67,0,0,0,.51,1.39,2,2,0,0,0,1.25.4,4.44,4.44,0,0,0,1.44-.24l1.12-.42Z"/><path class="cls-2" d="M258.43,65.11a5.56,5.56,0,0,0-.9-.67,10.89,10.89,0,0,0-1.58-.83,13.66,13.66,0,0,0-2-.68,8.64,8.64,0,0,0-2.21-.28,4.88,4.88,0,0,0-3,.74,2.43,2.43,0,0,0-1,2.07,2.18,2.18,0,0,0,.37,1.28,3.2,3.2,0,0,0,1.07.89,8.77,8.77,0,0,0,1.78.71c.71.21,1.54.43,2.47.66a34.39,34.39,0,0,1,3.32,1.06,8.85,8.85,0,0,1,2.53,1.4,5.9,5.9,0,0,1,1.6,2,6.79,6.79,0,0,1,.56,2.9,7.14,7.14,0,0,1-.76,3.42,6.28,6.28,0,0,1-2,2.3,8.84,8.84,0,0,1-3,1.28,14.78,14.78,0,0,1-3.5.41,18.45,18.45,0,0,1-5.54-.85,17,17,0,0,1-4.92-2.38l2.14-4.18a6.84,6.84,0,0,0,1.14.82,17.37,17.37,0,0,0,1.95,1,14.82,14.82,0,0,0,2.49.86,11,11,0,0,0,2.81.35q4,0,4-2.56a2.12,2.12,0,0,0-.46-1.37,3.77,3.77,0,0,0-1.3-1,12.88,12.88,0,0,0-2-.78L249.83,73a22.35,22.35,0,0,1-3.11-1.07,8.26,8.26,0,0,1-2.2-1.37,5.11,5.11,0,0,1-1.31-1.83,6.16,6.16,0,0,1-.44-2.47,7.72,7.72,0,0,1,.7-3.37,6.92,6.92,0,0,1,1.95-2.46,9,9,0,0,1,2.9-1.49,11.93,11.93,0,0,1,3.54-.51,13.79,13.79,0,0,1,4.85.82,18.09,18.09,0,0,1,3.86,2Z"/><path class="cls-2" d="M272.54,83.86a10.29,10.29,0,0,1-4-.76,9.2,9.2,0,0,1-3.05-2,9,9,0,0,1-1.95-3,9.67,9.67,0,0,1-.69-3.62,10.12,10.12,0,0,1,.67-3.7,9,9,0,0,1,1.93-3.06,9.28,9.28,0,0,1,3.07-2.09,10.35,10.35,0,0,1,4.06-.77,10,10,0,0,1,4,.77,9.43,9.43,0,0,1,3,2.07,9,9,0,0,1,1.9,3,10.14,10.14,0,0,1,.65,3.59c0,.3,0,.59,0,.87a3.33,3.33,0,0,1-.09.71H267.84a5.29,5.29,0,0,0,.53,1.93,4.86,4.86,0,0,0,1.08,1.44,5,5,0,0,0,1.51.91,5,5,0,0,0,1.76.32,5.37,5.37,0,0,0,2.65-.69,3.62,3.62,0,0,0,1.7-1.81l4,1.13a8.2,8.2,0,0,1-3.25,3.45A10,10,0,0,1,272.54,83.86Zm4.78-11.1a4.92,4.92,0,0,0-1.53-3.32,4.65,4.65,0,0,0-3.28-1.24,4.72,4.72,0,0,0-1.77.33,4.55,4.55,0,0,0-1.46.93,4.92,4.92,0,0,0-1,1.44,5.1,5.1,0,0,0-.47,1.86Z"/><path class="cls-2" d="M289.43,83.86a7,7,0,0,1-2.49-.44,6.06,6.06,0,0,1-2-1.23,5.87,5.87,0,0,1-1.32-1.84,5.73,5.73,0,0,1-.47-2.32,5.08,5.08,0,0,1,.58-2.41,5.46,5.46,0,0,1,1.61-1.88,8.31,8.31,0,0,1,2.48-1.21,10.87,10.87,0,0,1,3.16-.44,13.56,13.56,0,0,1,2.4.21,9.56,9.56,0,0,1,2.09.6V71.85a3.68,3.68,0,0,0-1-2.81,4.29,4.29,0,0,0-3.07-1,8.11,8.11,0,0,0-2.88.52,13.15,13.15,0,0,0-2.88,1.55l-1.44-3a13.54,13.54,0,0,1,7.65-2.35A9,9,0,0,1,298,66.74a7.12,7.12,0,0,1,2.2,5.63V78.1a1.68,1.68,0,0,0,.26,1.05,1.15,1.15,0,0,0,.86.35v4a10.61,10.61,0,0,1-2.07.24,3.11,3.11,0,0,1-2.05-.6,2.55,2.55,0,0,1-.9-1.58l-.1-1a8.2,8.2,0,0,1-3,2.45A8.46,8.46,0,0,1,289.43,83.86Zm1.34-3.44A6.14,6.14,0,0,0,293,80a4.06,4.06,0,0,0,1.67-1.12,1.67,1.67,0,0,0,.77-1.33V75.43a11.76,11.76,0,0,0-1.82-.51,9.79,9.79,0,0,0-1.9-.19,5,5,0,0,0-3,.82,2.47,2.47,0,0,0-1.16,2.09,2.52,2.52,0,0,0,.91,2A3.36,3.36,0,0,0,290.77,80.42Z"/><path class="cls-2" d="M314.89,69.18a9.36,9.36,0,0,0-3.83.82,4.86,4.86,0,0,0-2.42,2.37V83.51h-4.7V65.11h4.31V69a8.63,8.63,0,0,1,1.16-1.7A8.87,8.87,0,0,1,310.85,66a6.59,6.59,0,0,1,1.57-.86,4.23,4.23,0,0,1,1.52-.3h.58a1.5,1.5,0,0,1,.37,0Z"/><path class="cls-2" d="M314.82,74.31a10,10,0,0,1,.67-3.66,9,9,0,0,1,1.93-3,9.56,9.56,0,0,1,3.05-2.07,10.21,10.21,0,0,1,4-.77,9.66,9.66,0,0,1,5.15,1.3,8.3,8.3,0,0,1,3.17,3.41l-4.59,1.4a4.11,4.11,0,0,0-1.59-1.56,4.32,4.32,0,0,0-2.17-.55,4.5,4.5,0,0,0-1.9.41,4.8,4.8,0,0,0-1.53,1.12,5.14,5.14,0,0,0-1,1.74,6.91,6.91,0,0,0,0,4.49,5.77,5.77,0,0,0,1,1.76,4.51,4.51,0,0,0,1.53,1.14,4.35,4.35,0,0,0,1.86.4,4.5,4.5,0,0,0,2.33-.63,3.49,3.49,0,0,0,1.49-1.54l4.61,1.4a7.77,7.77,0,0,1-3.13,3.44,9.83,9.83,0,0,1-5.23,1.34,10,10,0,0,1-4-.78A9.3,9.3,0,0,1,317.45,81a9.08,9.08,0,0,1-1.94-3A9.76,9.76,0,0,1,314.82,74.31Z"/><path class="cls-2" d="M352.25,83.51h-4.7V73.18a5.19,5.19,0,0,0-.81-3.21,2.73,2.73,0,0,0-2.28-1,3.79,3.79,0,0,0-1.34.28,5.49,5.49,0,0,0-1.33.79,6.76,6.76,0,0,0-1.16,1.22,4.64,4.64,0,0,0-.77,1.54V83.51h-4.71V57.87h4.71V68.51a7.12,7.12,0,0,1,2.75-2.75,7.73,7.73,0,0,1,3.85-1,6,6,0,0,1,2.91.61A4.64,4.64,0,0,1,351.13,67a6.89,6.89,0,0,1,.88,2.31,14.73,14.73,0,0,1,.24,2.67Z"/></g></g><g id="Group_23" data-name="Group 23"><path id="Path_78" data-name="Path 78" class="cls-2" d="M86.19,45.05C85,42,77.7,29.81,75.39,26.53s-7-6.76-9.65-8.3S54.55,13.6,44.13,15.14,25.8,26.53,25.8,26.53,17.88,39.07,16,42.15a24.89,24.89,0,0,0-3.47,12,18.85,18.85,0,0,0,3.29,11c2.12,2.88,6.94,7.15,9.06,8.12,1.33.61,3.72,1.44,5.32,2l2.52-8.69c-1,.61-1.91,1.27-2.82,2a2,2,0,1,1-2.48-3.17h0A39.5,39.5,0,0,1,34.27,61l4.59-15.78a2,2,0,0,1,2.49-1.38h0a2,2,0,0,1,1.44,1.94,1.76,1.76,0,0,1-.07.56L39,59A38.44,38.44,0,0,1,49.8,57.1a37.25,37.25,0,0,1,10.62,1.12l-3.7-11.85a2.47,2.47,0,0,1-.08-.6,2,2,0,0,1,3.93-.61h0l4.55,14.6a36.86,36.86,0,0,1,7.37,4A2,2,0,0,1,73,66.6h0a2,2,0,0,1-2.8.48h0A33.43,33.43,0,0,0,66.75,65L70,75.34A50.52,50.52,0,0,0,76.54,73c2.9-1.35,7.34-6,8.49-7.93a23.94,23.94,0,0,0,3.09-10.79A21.92,21.92,0,0,0,86.19,45.05ZM34.57,40a5.24,5.24,0,0,1-5.24-5.24h0a5.24,5.24,0,1,1,10.48,0h0A5.24,5.24,0,0,1,34.57,40ZM57,56a2,2,0,0,1-2.79.56h0a7.06,7.06,0,0,0-8.13.36,2,2,0,0,1-1.23.42,2,2,0,0,1-1.24-3.6h0a11,11,0,0,1,12.83-.53A2,2,0,0,1,57,56ZM67,40a5.24,5.24,0,0,1-5.24-5.24h0A5.25,5.25,0,0,1,67,29.54h0a5.24,5.24,0,0,1,5.24,5.24h0A5.23,5.23,0,0,1,67,40Z"/><g id="Group_23-2" data-name="Group 23-2"><path id="Path_79" data-name="Path 79" class="cls-2" d="M45.28,20.77a2,2,0,0,1-1.72-1,19,19,0,0,1-1.8-15.58A2,2,0,0,1,44.29,3h0a2,2,0,0,1,1.29,2.53h0A14.9,14.9,0,0,0,47,17.71a2,2,0,0,1-.67,2.77h0A2.05,2.05,0,0,1,45.28,20.77Z"/></g><g id="Group_24" data-name="Group 24"><path id="Path_80" data-name="Path 80" class="cls-2" d="M48.25,16.24h0a2,2,0,0,1-2-2h0a14.61,14.61,0,0,1,2-7.2,13.18,13.18,0,0,1,5.14-4.63,2,2,0,0,1,1.88,3.56h0a9.21,9.21,0,0,0-3.61,3.2,10.83,10.83,0,0,0-1.39,5.13A2,2,0,0,1,48.25,16.24Z"/></g><g id="Group_25" data-name="Group 25"><path id="Path_81" data-name="Path 81" class="cls-2" d="M54,16a2.16,2.16,0,0,1-.62-.09,2,2,0,0,1-1.3-2.52h0c1.2-3.79,5.4-6.93,8.77-7.78A2,2,0,0,1,63.3,7h0a2,2,0,0,1-1.45,2.44h0c-2.21.56-5.18,2.79-5.92,5.1A2,2,0,0,1,54,16Z"/></g><g id="Group_26" data-name="Group 26"><path id="Path_82" data-name="Path 82" class="cls-2" d="M10.87,81.48h-.26a2,2,0,0,1-1.74-2.25h0c.76-6,3.41-16.44,12.56-18.95a2,2,0,0,1,2.47,1.4h0a2,2,0,0,1-1.41,2.47h0c-6.9,1.89-9,10.57-9.64,15.57A2,2,0,0,1,10.87,81.48Z"/></g><g id="Group_27" data-name="Group 27"><path id="Path_83" data-name="Path 83" class="cls-2" d="M6.78,68.89a2,2,0,0,1-1.91-2.64h0c1.92-5.73,6.55-15.45,16-16.13a2,2,0,1,1,.29,4h0c-7.14.51-10.89,8.61-12.5,13.4A2,2,0,0,1,6.78,68.89Z"/></g><g id="Group_28" data-name="Group 28"><path id="Path_84" data-name="Path 84" class="cls-2" d="M3.54,56.61a1.94,1.94,0,0,1-1.07-.31,2,2,0,0,1-.63-2.77h0c3.23-5.12,10-13.46,19.4-11.86A2,2,0,0,1,22.89,44h0a2,2,0,0,1-2.32,1.65h0c-7-1.2-12.62,5.78-15.31,10A2,2,0,0,1,3.54,56.61Z"/></g><g id="Group_29" data-name="Group 29"><path id="Path_85" data-name="Path 85" class="cls-2" d="M89.19,81.48a2,2,0,0,1-2-1.76c-.64-5-2.74-13.68-9.64-15.57a2,2,0,0,1-1.41-2.47h0a2,2,0,0,1,2.47-1.4h0c9.15,2.51,11.8,12.95,12.56,18.94a2,2,0,0,1-1.73,2.25h0A1.1,1.1,0,0,1,89.19,81.48Z"/></g><g id="Group_30" data-name="Group 30"><path id="Path_86" data-name="Path 86" class="cls-2" d="M93.28,68.89a2,2,0,0,1-1.91-1.37c-1.6-4.79-5.35-12.89-12.49-13.4A2,2,0,0,1,77,52h0a2,2,0,0,1,2.15-1.86c9.46.68,14.1,10.4,16,16.13a2,2,0,0,1-1.26,2.55h0A2,2,0,0,1,93.28,68.89Z"/></g><g id="Group_31" data-name="Group 31"><path id="Path_87" data-name="Path 87" class="cls-2" d="M97,55.78a2,2,0,0,1-1.65-.86c-2.89-4.13-8.79-10.84-15.77-9.3a2,2,0,0,1-2.4-1.53h0a2,2,0,0,1,1.53-2.39h0c9.28-2,16.47,6,19.94,10.93a2,2,0,0,1-.5,2.79h0A2.06,2.06,0,0,1,97,55.78Z"/></g><g id="Group_32" data-name="Group 32"><path id="Path_88" data-name="Path 88" class="cls-3" d="M71.94,49c-.12.35-.27.7-.43,1.06-1.66,3.73,1.33,8.34,5.3,8.9A6.77,6.77,0,0,0,82,57.42c4.91-4,0-10.64-4.36-12.47-1-.42-6.07-3.14-6.75-2.13-.39.56.5,1.36.75,1.78A4.74,4.74,0,0,1,71.94,49Z"/></g><g id="Group_33" data-name="Group 33"><path id="Path_89" data-name="Path 89" class="cls-3" d="M28.16,49c.13.35.27.7.43,1.06,1.67,3.73-1.33,8.34-5.29,8.9a6.8,6.8,0,0,1-5.18-1.5c-4.91-4,0-10.64,4.36-12.47,1-.42,6.07-3.14,6.76-2.13.38.56-.5,1.36-.76,1.78A4.77,4.77,0,0,0,28.16,49Z"/></g><g id="Group_34" data-name="Group 34"><path id="Path_90" data-name="Path 90" class="cls-2" d="M40.65,82.29A24.76,24.76,0,0,1,50,80.69a24.82,24.82,0,0,1,9.37,1.6h8.53l-.24-.77c-2.72-3.31-9.57-5.66-17.6-5.66S35.25,78.19,32.5,81.48l-.23.81Z"/><path id="Path_91" data-name="Path 91" class="cls-2" d="M35,74.8a36.38,36.38,0,0,1,15-3,36.38,36.38,0,0,1,15,3l.54.27-8.94-28.7a1.77,1.77,0,0,1-.08-.6H42.79a2.1,2.1,0,0,1-.07.56L34.35,75.14C34.57,75,34.8,74.91,35,74.8Zm8.62-21.07a11,11,0,0,1,12.83-.53A2,2,0,0,1,57.05,56h0a2,2,0,0,1-2.78.56h0a7.06,7.06,0,0,0-8.13.36,2,2,0,0,1-1.23.42,2,2,0,0,1-1.59-.77,2,2,0,0,1,.34-2.82ZM41.05,65a16.06,16.06,0,0,1,18-.72,2,2,0,0,1,.63,2.78h0a2,2,0,0,1-2.77.62,12.18,12.18,0,0,0-13.49.56A2,2,0,0,1,41,65Z"/></g><path id="Path_92" data-name="Path 92" class="cls-2" d="M31.45,13.63a9.29,9.29,0,0,0-.1-2.63,5.74,5.74,0,0,0-1.54-3c-3.48-3.48-11.14-1.47-17.11,4.5s-8,13.62-4.5,17.1a6.39,6.39,0,0,0,4.61,1.7h0c.31,0,.63,0,1,0,6.83-.27,8.26.53,11.23,3l9.38-10.11C33.12,22.18,31.79,19,31.45,13.63ZM24.8,15.28a13.4,13.4,0,0,0-9.25,10.09,2,2,0,0,1-2,1.64,1.64,1.64,0,0,1-.38,0,2,2,0,0,1-1.6-2.35h0A17.33,17.33,0,0,1,23.72,11.41a2,2,0,1,1,1.08,3.87Z"/><path id="Path_93" data-name="Path 93" class="cls-2" d="M86.9,11.56c-6-6-13.63-8-17.11-4.5a5.86,5.86,0,0,0-1.55,3.06,8.92,8.92,0,0,0-.09,2.63c-.35,5.33-1.67,8.55-2.94,10.45L74.6,33.31c3-2.45,4.4-3.26,11.23-3,.32,0,.64,0,1,0h0a6.3,6.3,0,0,0,4.6-1.69C94.88,25.19,92.86,17.53,86.9,11.56ZM85.66,26.09l-.38,0a2,2,0,0,1-2-1.64A13.4,13.4,0,0,0,74.05,14.4a2,2,0,0,1-1.4-2.47h0a2,2,0,0,1,2.47-1.4h0A17.36,17.36,0,0,1,87.26,23.73a2,2,0,0,1-1.6,2.36Z"/><path id="Path_94" data-name="Path 94" class="cls-2" d="M50.08,75.86c-10.42,0-18.87,4-18.87,8.84s8.45,8.85,18.87,8.85S69,89.59,69,84.7,60.5,75.86,50.08,75.86Zm10.73,9C58.9,85.89,55.34,87.11,50,87.11s-8.88-1.22-10.79-2.28a1.07,1.07,0,0,1-.42-1.46,1.1,1.1,0,0,1,.42-.41c1.91-1.06,5.46-2.27,10.79-2.27S58.9,81.9,60.81,83a1.07,1.07,0,0,1,.41,1.46A1,1,0,0,1,60.81,84.83Z"/></g></svg>