<svg id="Layer_1" data-name="Layer 1" xmlns="http://www.w3.org/2000/svg" viewBox="0 0 279.02 99.38"><defs><style>.cls-1{isolation:isolate;}.cls-2{fill:#383838;}.cls-3{fill:#75767a;}.cls-4{fill:#fff;}</style></defs><g id="Squonk" class="cls-1"><g class="cls-1"><path class="cls-2" d="M131,18.22a7.91,7.91,0,0,0-1.21-.9,14.24,14.24,0,0,0-2.12-1.11,18.59,18.59,0,0,0-2.73-.93,11.94,11.94,0,0,0-3-.38,6.7,6.7,0,0,0-4,1,3.28,3.28,0,0,0-1.32,2.79,2.9,2.9,0,0,0,.49,1.73,4.3,4.3,0,0,0,1.45,1.2,11.52,11.52,0,0,0,2.39.95q1.44.42,3.33.9a46.49,46.49,0,0,1,4.47,1.42,12,12,0,0,1,3.41,1.89,7.84,7.84,0,0,1,2.15,2.72,9,9,0,0,1,.76,3.91A9.72,9.72,0,0,1,134,38a8.56,8.56,0,0,1-2.74,3.1,11.84,11.84,0,0,1-4,1.72,19.46,19.46,0,0,1-4.7.55,25.19,25.19,0,0,1-7.48-1.14A23,23,0,0,1,108.52,39l2.88-5.63a9.93,9.93,0,0,0,1.54,1.11,25.22,25.22,0,0,0,2.63,1.37,20.65,20.65,0,0,0,3.36,1.16,15.41,15.41,0,0,0,3.78.47q5.4,0,5.4-3.45a2.85,2.85,0,0,0-.62-1.85,5.26,5.26,0,0,0-1.75-1.32,16.08,16.08,0,0,0-2.75-1c-1.07-.32-2.27-.67-3.59-1a31.6,31.6,0,0,1-4.19-1.45,11.07,11.07,0,0,1-3-1.84,7,7,0,0,1-1.77-2.46,8.63,8.63,0,0,1-.59-3.34,10.44,10.44,0,0,1,.94-4.54,9.21,9.21,0,0,1,2.63-3.31,11.64,11.64,0,0,1,3.9-2,16.1,16.1,0,0,1,4.78-.69,18.53,18.53,0,0,1,6.53,1.11,24.39,24.39,0,0,1,5.21,2.63Z"/><path class="cls-2" d="M147.84,43.48a9.55,9.55,0,0,1-4.36-1,10.78,10.78,0,0,1-3.43-2.77,13.16,13.16,0,0,1-2.25-4.09,15.66,15.66,0,0,1-.8-5,14,14,0,0,1,.88-5,12.71,12.71,0,0,1,2.43-4.05A11.39,11.39,0,0,1,144,18.79a10.62,10.62,0,0,1,4.59-1,9.56,9.56,0,0,1,5,1.3,10.78,10.78,0,0,1,3.55,3.43v-4.3h5.53V45.47a2.11,2.11,0,0,0,.38,1.44,1.89,1.89,0,0,0,1.33.45v5.4c-.54.09-1.12.16-1.75.21s-1.2.07-1.71.07a4.72,4.72,0,0,1-1.77-.33,4.67,4.67,0,0,1-1.45-.9,4.45,4.45,0,0,1-1-1.35,3.91,3.91,0,0,1-.38-1.72V38.66a9.23,9.23,0,0,1-3.55,3.62A10.09,10.09,0,0,1,147.84,43.48Zm2.36-5.39A5.73,5.73,0,0,0,153.75,37a10,10,0,0,0,2.6-2.93V28.15a6.06,6.06,0,0,0-.92-1.94,8,8,0,0,0-1.49-1.58,6.86,6.86,0,0,0-1.85-1.07,5.55,5.55,0,0,0-2-.37,5.84,5.84,0,0,0-2.68.61,6.48,6.48,0,0,0-2.08,1.68A8.19,8.19,0,0,0,144,27.92a8.28,8.28,0,0,0-.5,2.84,8.14,8.14,0,0,0,.5,2.88A7.34,7.34,0,0,0,145.35,36a6.31,6.31,0,0,0,2.11,1.56A6.43,6.43,0,0,0,150.2,38.09Z"/></g><g class="cls-1"><path class="cls-2" d="M175.14,43.48A7,7,0,0,1,169.32,41q-2-2.46-2-7.28V18.22h6.34V32.36q0,5.73,4.11,5.73A6.52,6.52,0,0,0,181.36,37a7.93,7.93,0,0,0,2.81-3.39V18.22h6.34v17.5a2.18,2.18,0,0,0,.36,1.42,1.55,1.55,0,0,0,1.16.48V43a14.44,14.44,0,0,1-1.59.24c-.42,0-.81,0-1.16,0a4.59,4.59,0,0,1-2.77-.78,3.07,3.07,0,0,1-1.25-2.15l-.14-2a10.67,10.67,0,0,1-4.26,3.84A12.8,12.8,0,0,1,175.14,43.48Z"/></g><g class="cls-1"><path class="cls-2" d="M207.31,43.48a13.5,13.5,0,0,1-5.44-1,12.17,12.17,0,0,1-4.09-2.81,12.5,12.5,0,0,1-2.58-4.1,13.32,13.32,0,0,1-.9-4.87,13.51,13.51,0,0,1,.9-4.92,12.45,12.45,0,0,1,2.58-4.09,12.19,12.19,0,0,1,4.09-2.82,13.67,13.67,0,0,1,5.44-1,13.5,13.5,0,0,1,5.42,1,12.31,12.31,0,0,1,4.07,2.82,12.45,12.45,0,0,1,2.58,4.09,13.51,13.51,0,0,1,.9,4.92,13.32,13.32,0,0,1-.9,4.87,12.61,12.61,0,0,1-2.56,4.1,11.89,11.89,0,0,1-4.07,2.81A13.5,13.5,0,0,1,207.31,43.48Zm-6.48-12.82a8.45,8.45,0,0,0,.5,3A7.26,7.26,0,0,0,202.7,36a6.06,6.06,0,0,0,2.06,1.53,6.21,6.21,0,0,0,5.11,0,6.13,6.13,0,0,0,2-1.53,7.11,7.11,0,0,0,1.38-2.37,9.46,9.46,0,0,0,0-6,7.17,7.17,0,0,0-1.38-2.36,6,6,0,0,0-2-1.54,6.09,6.09,0,0,0-2.56-.54,5.77,5.77,0,0,0-2.55.56,6.42,6.42,0,0,0-2.06,1.56,7.3,7.3,0,0,0-1.37,2.37A8.51,8.51,0,0,0,200.83,30.66Z"/><path class="cls-2" d="M246.68,43h-6.34V29.1a7.25,7.25,0,0,0-1-4.35,3.43,3.43,0,0,0-2.89-1.38,5.48,5.48,0,0,0-1.94.38,7.29,7.29,0,0,0-1.87,1.07A8.74,8.74,0,0,0,231,26.45,6.48,6.48,0,0,0,230,28.53V43h-6.34V18.22h5.73v4.59a9.34,9.34,0,0,1,4-3.69,12.71,12.71,0,0,1,5.87-1.33,7.46,7.46,0,0,1,3.79.85,6.23,6.23,0,0,1,2.27,2.23A9.47,9.47,0,0,1,246.37,24a21,21,0,0,1,.31,3.55Z"/></g><g class="cls-1"><path class="cls-2" d="M268.25,43l-7.19-10.74-3.41,3.36V43h-6.34V8.47h6.34v21l9.94-11.17h6.77l-9.23,10.51L275,43Z"/></g></g><g id="Fragnet_Search" data-name="Fragnet Search" class="cls-1"><g class="cls-1"><path class="cls-3" d="M110.07,83.51V58.61h4.85V70.44l10.46-11.87h5.34l-9.55,11.06,10.15,13.88h-5.44l-7.76-10.78-3.2,3.33v7.45Z"/><path class="cls-3" d="M140.1,83.86a10.31,10.31,0,0,1-4-.76,9.2,9.2,0,0,1-3.05-2,9.34,9.34,0,0,1-1.95-3,9.66,9.66,0,0,1-.68-3.62,10.33,10.33,0,0,1,.66-3.7A9.19,9.19,0,0,1,133,67.65a9.33,9.33,0,0,1,3.08-2.09,10.26,10.26,0,0,1,4-.77,10,10,0,0,1,4,.77,9.43,9.43,0,0,1,3,2.07,9,9,0,0,1,1.9,3,10.14,10.14,0,0,1,.65,3.59c0,.3,0,.59,0,.87a3.33,3.33,0,0,1-.09.71H135.39a5.49,5.49,0,0,0,.53,1.93,4.72,4.72,0,0,0,2.6,2.35,4.93,4.93,0,0,0,1.75.32,5.37,5.37,0,0,0,2.65-.69,3.68,3.68,0,0,0,1.71-1.81l4,1.13a8.17,8.17,0,0,1-3.24,3.45A10,10,0,0,1,140.1,83.86Zm4.77-11.1a4.87,4.87,0,0,0-1.53-3.32,4.65,4.65,0,0,0-3.28-1.24,4.72,4.72,0,0,0-1.77.33,4.55,4.55,0,0,0-1.46.93,4.92,4.92,0,0,0-1,1.44,5.31,5.31,0,0,0-.47,1.86Z"/><path class="cls-3" d="M151.86,87.09a10.61,10.61,0,0,0,1.16.26,6.11,6.11,0,0,0,.95.09,2,2,0,0,0,.84-.18,1.81,1.81,0,0,0,.7-.61,6.05,6.05,0,0,0,.63-1.21c.21-.52.44-1.16.67-1.93l-7.27-18.4h4.85l5,14.32,4.43-14.32h4.42l-7.72,22a6.7,6.7,0,0,1-2.28,3.16,6.45,6.45,0,0,1-4,1.23,7.49,7.49,0,0,1-1.14-.09,7.62,7.62,0,0,1-1.21-.3Z"/><path class="cls-3" d="M168.36,74.31a10.16,10.16,0,0,1,.67-3.66,9,9,0,0,1,1.93-3A9.5,9.5,0,0,1,174,65.56a10.16,10.16,0,0,1,4-.77,9.66,9.66,0,0,1,5.15,1.3,8.33,8.33,0,0,1,3.18,3.41l-4.6,1.4a4.15,4.15,0,0,0-1.58-1.56,4.36,4.36,0,0,0-2.18-.55,4.5,4.5,0,0,0-1.9.41,4.65,4.65,0,0,0-1.52,1.12,5,5,0,0,0-1,1.74,6.48,6.48,0,0,0-.37,2.25,6.24,6.24,0,0,0,.39,2.24,5.56,5.56,0,0,0,1,1.76,4.51,4.51,0,0,0,1.53,1.14,4.35,4.35,0,0,0,1.86.4,4.5,4.5,0,0,0,2.33-.63,3.51,3.51,0,0,0,1.5-1.54l4.6,1.4a7.71,7.71,0,0,1-3.13,3.44,9.8,9.8,0,0,1-5.23,1.34,10,10,0,0,1-4-.78A9.15,9.15,0,0,1,171,81a9,9,0,0,1-1.95-3A9.76,9.76,0,0,1,168.36,74.31Z"/><path class="cls-3" d="M188.66,57.87h4.7V77.61a2.32,2.32,0,0,0,.5,1.58,1.76,1.76,0,0,0,1.4.56,3.69,3.69,0,0,0,.93-.14,7.42,7.42,0,0,0,1-.35l.63,3.58a9.11,9.11,0,0,1-2.21.7,12.56,12.56,0,0,1-2.29.25,4.73,4.73,0,0,1-3.42-1.18,4.44,4.44,0,0,1-1.21-3.35Z"/><path class="cls-3" d="M207.69,83.86a10,10,0,0,1-4-.78,9,9,0,0,1-3-2.09,9.14,9.14,0,0,1-1.92-3,10.2,10.2,0,0,1,0-7.27,9.07,9.07,0,0,1,5-5.13,10.21,10.21,0,0,1,4-.77,10,10,0,0,1,4,.77,9,9,0,0,1,4.93,5.13,10.2,10.2,0,0,1,0,7.27,9.22,9.22,0,0,1-1.89,3,8.83,8.83,0,0,1-3,2.09A10,10,0,0,1,207.69,83.86Zm-4.81-9.52a6.32,6.32,0,0,0,.37,2.23,5.19,5.19,0,0,0,1,1.74,4.57,4.57,0,0,0,1.52,1.14,4.71,4.71,0,0,0,3.8,0,4.57,4.57,0,0,0,1.52-1.14,5.19,5.19,0,0,0,1-1.76,6.46,6.46,0,0,0,.37-2.24,6.39,6.39,0,0,0-.37-2.22,5.14,5.14,0,0,0-1-1.75,4.57,4.57,0,0,0-1.52-1.14,4.5,4.5,0,0,0-1.9-.41,4.36,4.36,0,0,0-1.9.42,4.92,4.92,0,0,0-1.52,1.16,5.19,5.19,0,0,0-1,1.76A6.33,6.33,0,0,0,202.88,74.34Z"/><path class="cls-3" d="M224.86,83.86a7,7,0,0,1-2.49-.44,6.13,6.13,0,0,1-2-1.23,5.71,5.71,0,0,1-1.32-1.84,5.56,5.56,0,0,1-.47-2.32,5.19,5.19,0,0,1,.57-2.41,5.6,5.6,0,0,1,1.62-1.88,8.31,8.31,0,0,1,2.48-1.21,10.87,10.87,0,0,1,3.16-.44,13.64,13.64,0,0,1,2.4.21,9.72,9.72,0,0,1,2.09.6V71.85a3.68,3.68,0,0,0-1-2.81,4.28,4.28,0,0,0-3.07-1,8.2,8.2,0,0,0-2.88.53A13.62,13.62,0,0,0,221,70.13l-1.44-3a13.6,13.6,0,0,1,7.66-2.35,9,9,0,0,1,6.16,1.95,7.15,7.15,0,0,1,2.2,5.63V78.1a1.62,1.62,0,0,0,.26,1.05,1.13,1.13,0,0,0,.86.35v4a10.78,10.78,0,0,1-2.07.24,3.14,3.14,0,0,1-2.06-.6,2.49,2.49,0,0,1-.89-1.58l-.11-1a8.17,8.17,0,0,1-3,2.45A8.46,8.46,0,0,1,224.86,83.86Zm1.34-3.44a5.94,5.94,0,0,0,2.26-.43,4.13,4.13,0,0,0,1.67-1.12,1.7,1.7,0,0,0,.77-1.33V75.43a11.59,11.59,0,0,0-1.83-.51,9.61,9.61,0,0,0-1.89-.19,5.05,5.05,0,0,0-3,.82,2.52,2.52,0,0,0-.24,4.07A3.31,3.31,0,0,0,226.2,80.42Z"/><path class="cls-3" d="M251.93,83.51l-5.33-8L244.07,78v5.48h-4.71V57.87h4.71V73.43l7.37-8.29h5l-6.84,7.8L257,83.51Z"/></g></g><g id="Group_8" data-name="Group 8"><g id="Group_1" data-name="Group 1"><path id="Path_1" data-name="Path 1" class="cls-2" d="M45.74,20.61a2,2,0,0,1-1.72-1,19,19,0,0,1-1.8-15.57,2,2,0,0,1,3.83,1.26,14.86,14.86,0,0,0,1.41,12.22,2,2,0,0,1-.67,2.77,2,2,0,0,1-1,.29"/><path id="Path_2" data-name="Path 2" class="cls-2" d="M48.71,16.08h0a2,2,0,0,1-2-2,14.58,14.58,0,0,1,2-7.2,13.18,13.18,0,0,1,5.14-4.63,2,2,0,1,1,1.94,3.52l-.06,0A9.18,9.18,0,0,0,52.12,9a10.72,10.72,0,0,0-1.4,5.13,2,2,0,0,1-2,2"/><path id="Path_3" data-name="Path 3" class="cls-2" d="M54.46,15.79a2,2,0,0,1-2-2,1.76,1.76,0,0,1,.1-.6c1.2-3.79,5.4-6.93,8.76-7.78a2,2,0,0,1,1,3.9c-2.21.56-5.18,2.79-5.92,5.1a2,2,0,0,1-1.91,1.4"/><path id="Path_4" data-name="Path 4" class="cls-4" d="M26.26,26.36S34.17,16.52,44.59,15,63.5,16.52,66.2,18.07s7.33,5,9.64,8.3,9.65,15.43,10.8,18.52a21.89,21.89,0,0,1,1.93,9.26,24.05,24.05,0,0,1-3.08,10.79c-1.16,1.94-5.6,6.57-8.49,7.92a62,62,0,0,1-7.91,2.7c-.58.2-36.85,0-36.85,0s-4.83-1.54-7-2.5-6.95-5.25-9.07-8.12a19,19,0,0,1-3.28-11,24.88,24.88,0,0,1,3.47-12c1.93-3.08,9.84-15.63,9.84-15.63"/><path id="Path_5" data-name="Path 5" class="cls-2" d="M58.12,77.24c-5.5,0-13.68,0-25.89-.09a1.59,1.59,0,0,1-.48-.07c-.2-.07-4.94-1.59-7.12-2.58-2.43-1.1-7.41-5.54-9.69-8.62A20.48,20.48,0,0,1,11.35,54a26.31,26.31,0,0,1,3.72-12.8c1.91-3.06,9.76-15.51,9.84-15.64l.11-.15c.33-.42,8.42-10.34,19.33-12C55,11.83,63.8,14.86,67,16.68c2.67,1.53,7.59,5.13,10.15,8.76,2.43,3.44,9.77,15.59,11,18.88l.1.27a23.09,23.09,0,0,1,1.94,9.55,25.66,25.66,0,0,1-3.31,11.6c-1.24,2.08-5.86,7-9.19,8.56a56.25,56.25,0,0,1-7.46,2.59l-.62.18c-.22.07-.52.17-11.47.17M32.49,74c13.72.07,34.24.14,36.28,0l.56-.16a53.54,53.54,0,0,0,7-2.41c2.57-1.2,6.8-5.63,7.79-7.3a22.32,22.32,0,0,0,2.87-10,20.06,20.06,0,0,0-1.73-8.43l-.1-.27c-1-2.79-8.13-14.65-10.61-18.16-2.25-3.19-6.8-6.5-9.14-7.83s-10.48-4.39-20.59-2.89c-9.26,1.37-16.58,9.91-17.27,10.74-.7,1.1-8,12.62-9.78,15.53A23.34,23.34,0,0,0,14.53,54a17.34,17.34,0,0,0,3,10c2,2.74,6.69,6.81,8.45,7.61s5.57,2.05,6.54,2.37"/><path id="Path_6" data-name="Path 6" class="cls-2" d="M15.71,63.75c-4.27,4.3-5.83,11-6.38,15.3a2,2,0,1,0,4,.51c.46-3.62,1.69-9.16,4.95-12.66a13.2,13.2,0,0,1-2.56-3.15"/><path id="Path_7" data-name="Path 7" class="cls-2" d="M13.91,58.22a13.82,13.82,0,0,1-1-4.61c-4,3.52-6.34,8.8-7.56,12.46a2,2,0,1,0,3.79,1.36.19.19,0,0,0,0-.08,28.44,28.44,0,0,1,4.77-9s0-.06,0-.09"/><path id="Path_8" data-name="Path 8" class="cls-2" d="M17.1,41.5C10.11,42.7,5,49.13,2.31,53.36a2,2,0,0,0,3.33,2.27l.07-.12c1.83-2.9,5-7,9.05-9a11.91,11.91,0,0,1,2.34-5"/><path id="Path_9" data-name="Path 9" class="cls-2" d="M91.65,79c-.54-4.21-2-10.62-6-14.93a11.75,11.75,0,0,1-1.92,4c2.52,3.48,3.53,8.22,3.94,11.44a2,2,0,0,0,4-.51"/><path id="Path_10" data-name="Path 10" class="cls-2" d="M95.64,66.07c-1.31-3.9-3.88-9.66-8.38-13.15a14.35,14.35,0,0,1,.61,3.5,10.67,10.67,0,0,1-.22,2.64,29.49,29.49,0,0,1,4.17,8.29,2,2,0,0,0,3.82-1.28"/><path id="Path_11" data-name="Path 11" class="cls-2" d="M99.11,52.45c-2.72-3.88-7.72-9.64-14.23-11a13.68,13.68,0,0,1,2.21,5c3.8,1.92,6.88,5.61,8.72,8.25a2,2,0,0,0,3.3-2.31"/><path id="Path_12" data-name="Path 12" class="cls-3" d="M72.4,48.79c-.12.35-.27.7-.43,1.06-1.66,3.74,1.33,8.34,5.29,8.9a6.79,6.79,0,0,0,5.18-1.49c4.9-4,0-10.64-4.36-12.48-1-.41-6.07-3.13-6.75-2.12-.39.56.5,1.36.75,1.77a4.76,4.76,0,0,1,.32,4.37"/><path id="Path_13" data-name="Path 13" class="cls-3" d="M28.63,48.79c.12.35.26.7.42,1.06,1.67,3.74-1.33,8.34-5.29,8.9a6.75,6.75,0,0,1-5.17-1.49c-4.91-4,0-10.64,4.35-12.48,1-.41,6.07-3.13,6.76-2.12.39.56-.5,1.36-.75,1.77a4.76,4.76,0,0,0-.32,4.37"/><path id="Path_14" data-name="Path 14" class="cls-2" d="M40.27,34.62A5.24,5.24,0,1,1,35,29.38a5.24,5.24,0,0,1,5.24,5.24h0"/><path id="Path_15" data-name="Path 15" class="cls-2" d="M72.7,34.62a5.24,5.24,0,1,1-5.24-5.24h0a5.25,5.25,0,0,1,5.24,5.24"/><path id="Path_16" data-name="Path 16" class="cls-2" d="M29.07,68.74a2,2,0,0,1-1.24-3.6,38.55,38.55,0,0,1,22.43-8.22A36.71,36.71,0,0,1,73,63.64a2,2,0,0,1-2.33,3.28c-11.89-8.42-28.47-7.85-40.31,1.39a2,2,0,0,1-1.24.43"/><path id="Path_17" data-name="Path 17" class="cls-4" d="M59.11,45.6l12,38.53H30.05L41.25,45.6"/><path id="Path_18" data-name="Path 18" class="cls-2" d="M71.12,86.14H30.05a2,2,0,0,1-2-2,2.1,2.1,0,0,1,.08-.56L39.32,45a2,2,0,0,1,3.86,1.12l-10.45,36H68.38L57.18,46.2A2,2,0,0,1,61,45L73,83.53a2,2,0,0,1-1.32,2.52,2,2,0,0,1-.6.09"/><path id="Path_19" data-name="Path 19" class="cls-2" d="M42.71,68.48a2,2,0,0,1-1.2-3.63,16.06,16.06,0,0,1,18-.72,2,2,0,1,1-2.16,3.4,12.17,12.17,0,0,0-13.48.56,1.91,1.91,0,0,1-1.19.39"/><path id="Path_20" data-name="Path 20" class="cls-2" d="M45.35,57.16a2,2,0,0,1-1.23-3.6A11,11,0,0,1,56.94,53a2,2,0,0,1-2.14,3.41l-.09-.06a7.06,7.06,0,0,0-8.13.36,2,2,0,0,1-1.23.42"/><path id="Path_21" data-name="Path 21" class="cls-4" d="M50.54,95.39c-11.9,0-20.88-4.67-20.88-10.86s9-10.86,20.88-10.86,20.88,4.67,20.88,10.86-9,10.86-20.88,10.86"/><path id="Path_22" data-name="Path 22" class="cls-2" d="M50.54,75.69c10.42,0,18.87,4,18.87,8.84S61,93.37,50.54,93.37s-18.87-4-18.87-8.84,8.45-8.84,18.87-8.84m0-4a36.38,36.38,0,0,0-15,3c-6.82,3.2-7.84,7.58-7.84,9.9s1,6.7,7.84,9.9a36.38,36.38,0,0,0,15,3,36.38,36.38,0,0,0,15.05-3c6.82-3.2,7.84-7.57,7.84-9.9s-1-6.7-7.84-9.9a36.38,36.38,0,0,0-15.05-3"/><path id="Path_23" data-name="Path 23" class="cls-4" d="M34.85,23.92c-1.27-1.9-2.6-5.12-2.94-10.45a8.92,8.92,0,0,0-.09-2.63,5.86,5.86,0,0,0-1.55-3.06c-3.48-3.48-11.14-1.46-17.1,4.5s-8,13.63-4.5,17.1a6.39,6.39,0,0,0,4.61,1.7h0c.31,0,.63,0,1,0,6.83-.27,8.26.53,11.23,3"/><path id="Path_24" data-name="Path 24" class="cls-2" d="M25.46,35.62a1.6,1.6,0,0,1-1-.36c-2.54-2.1-3.49-2.89-10.12-2.63-.34,0-.69,0-1.06,0a8,8,0,0,1-5.73-2.17C3.37,26.35,5.35,17.85,12,11.16A23.31,23.31,0,0,1,22.24,5c3.8-1,7.05-.39,9.15,1.71a7.28,7.28,0,0,1,2,3.87,10.15,10.15,0,0,1,.13,3c.35,5.1,1.64,8,2.67,9.54a1.59,1.59,0,1,1-2.65,1.77c-1.82-2.73-2.9-6.51-3.2-11.23a1.13,1.13,0,0,1,0-.26,7.53,7.53,0,0,0-.07-2.17,4.26,4.26,0,0,0-1.11-2.23C27.88,7.65,25.71,7.33,23.05,8a20.25,20.25,0,0,0-8.76,5.38C9.05,18.66,7,25.46,9.79,28.26a4.77,4.77,0,0,0,3.49,1.23q.42,0,.81,0h.08c7.23-.29,9,.64,12.31,3.35A1.6,1.6,0,0,1,26.69,35a1.58,1.58,0,0,1-1.23.58"/><path id="Path_25" data-name="Path 25" class="cls-4" d="M65.67,23c1.26-1.9,2.59-5.12,2.94-10.45A8.92,8.92,0,0,1,68.7,10,5.79,5.79,0,0,1,70.25,6.9c3.48-3.48,11.13-1.46,17.1,4.5s8,13.63,4.5,17.1a6.39,6.39,0,0,1-4.61,1.7h0c-.31,0-.63,0-1,0-6.83-.27-8.26.53-11.23,3"/><path id="Path_26" data-name="Path 26" class="cls-2" d="M75.05,34.74a1.6,1.6,0,0,1-1.59-1.6A1.57,1.57,0,0,1,74,31.92c3.28-2.71,5.08-3.63,12.3-3.35h.09c.25,0,.52,0,.8,0a4.71,4.71,0,0,0,3.49-1.23c2.8-2.8.75-9.6-4.5-14.85a20.18,20.18,0,0,0-8.76-5.37c-2.66-.7-4.82-.39-6.09.87a4.25,4.25,0,0,0-1.11,2.24,7.45,7.45,0,0,0-.07,2.16,1.22,1.22,0,0,1,0,.27c-.31,4.72-1.38,8.5-3.2,11.23a1.59,1.59,0,1,1-2.65-1.77c1-1.54,2.32-4.44,2.67-9.54a10.48,10.48,0,0,1,.12-3,7.36,7.36,0,0,1,2-3.88c2.1-2.1,5.35-2.71,9.15-1.7a23.44,23.44,0,0,1,10.2,6.2C95.16,17,97.14,25.47,93,29.64a8,8,0,0,1-5.73,2.16c-.37,0-.72,0-1.07,0-6.62-.26-7.57.52-10.11,2.62a1.6,1.6,0,0,1-1,.36"/><path id="Path_27" data-name="Path 27" class="cls-2" d="M14,26.84a2,2,0,0,1-2-2,2.43,2.43,0,0,1,0-.38A17.36,17.36,0,0,1,24.19,11.24a2,2,0,0,1,1.07,3.87A13.43,13.43,0,0,0,16,25.21a2,2,0,0,1-2,1.64"/><path id="Path_28" data-name="Path 28" class="cls-2" d="M85.73,26a2,2,0,0,1-2-1.63,13.42,13.42,0,0,0-9.25-10.09,2,2,0,0,1,1-3.89h0A17.33,17.33,0,0,1,87.71,23.57a2,2,0,0,1-1.6,2.36,2.43,2.43,0,0,1-.38,0"/><path id="Path_29" data-name="Path 29" class="cls-2" d="M50.48,86.94c-5.33,0-8.88-1.22-10.79-2.28a1.07,1.07,0,0,1,0-1.87c1.91-1.06,5.46-2.27,10.79-2.27s8.88,1.21,10.79,2.27a1.07,1.07,0,0,1,0,1.87c-1.92,1.06-5.46,2.28-10.79,2.28"/></g></g></svg>