<svg id="Layer_2" data-name="Layer 2" xmlns="http://www.w3.org/2000/svg" viewBox="0 0 275.33 269.52"><defs><style>.cls-1{fill:#9bb9d3;}.cls-2,.cls-4{fill:#fff;}.cls-2,.cls-5{stroke:#000;}.cls-2,.cls-3,.cls-5{stroke-linecap:round;stroke-linejoin:round;}.cls-2{stroke-width:9px;}.cls-3,.cls-5{fill:none;}.cls-3{stroke:#9bb9d3;stroke-width:20px;}.cls-5{stroke-width:10px;}</style></defs><title>InformaticsMatters_Website_V3</title><ellipse class="cls-1" cx="140.9" cy="202.87" rx="108.93" ry="50.16"/><path d="M124,52.45a5.68,5.68,0,0,1-4.86-2.73,53.53,53.53,0,0,1-5.09-44,5.68,5.68,0,0,1,10.8,3.54,42,42,0,0,0,4,34.53A5.68,5.68,0,0,1,124,52.45Z"/><path d="M132.32,39.66h-.08a5.68,5.68,0,0,1-5.6-5.76,41.22,41.22,0,0,1,5.65-20.33A37.3,37.3,0,0,1,146.81.49a5.68,5.68,0,1,1,5.32,10,26,26,0,0,0-10.18,9A30.27,30.27,0,0,0,138,34.06,5.68,5.68,0,0,1,132.32,39.66Z"/><path d="M148.58,38.84a5.69,5.69,0,0,1-5.42-7.41c3.4-10.69,15.26-19.57,24.76-22a5.68,5.68,0,0,1,2.79,11c-6.24,1.58-14.64,7.88-16.72,14.4A5.69,5.69,0,0,1,148.58,38.84Z"/><path class="cls-2" d="M68.91,68.7s22.34-27.79,51.77-32.15,53.41,4.36,61,8.72S202.43,59.44,209,68.7s27.25,43.6,30.52,52.32,5.45,14.17,5.45,26.16-5.45,25-8.72,30.47-15.8,18.58-24,22.39-20.71,7.08-22.34,7.63-104.09,0-104.09,0-13.62-4.36-19.62-7.08-19.62-14.81-25.61-22.94-9.26-19.57-9.26-31,4.36-25.07,9.81-33.79S68.91,68.7,68.91,68.7Z"/><path d="M39.13,174.31c-12.09,12.15-16.47,30.94-18,43.2a5.68,5.68,0,1,0,11.27,1.44c1.3-10.22,4.77-25.86,14-35.76A37.08,37.08,0,0,1,39.13,174.31Z"/><path d="M34,158.68a39.53,39.53,0,0,1-2.85-13C19.9,155.6,13.29,170.52,9.82,180.87a5.68,5.68,0,1,0,10.78,3.61c2.47-7.39,6.77-17.58,13.46-25.54Z"/><path d="M43,111.47C23.3,114.84,8.82,133,1.27,145A5.68,5.68,0,1,0,10.88,151c5.17-8.19,14.1-19.91,25.55-25.52A33.73,33.73,0,0,1,43,111.47Z"/><path d="M253.61,217.51c-1.52-11.91-5.68-30-17-42.17a33.81,33.81,0,0,1-5.42,11.3c7.1,9.82,10,23.21,11.13,32.31a5.68,5.68,0,1,0,11.27-1.44Z"/><path d="M264.89,180.87c-3.69-11-11-27.29-23.66-37.14a39.68,39.68,0,0,1,1.71,9.86,30.28,30.28,0,0,1-.6,7.47c5.73,7.58,9.52,16.66,11.78,23.41a5.68,5.68,0,1,0,10.78-3.61Z"/><path d="M274.7,142.4c-7.67-11-21.82-27.24-40.19-31a38.74,38.74,0,0,1,6.23,14.2c10.74,5.42,19.43,15.84,24.65,23.3a5.68,5.68,0,0,0,9.31-6.51Z"/><path d="M76.85,188.39a5.68,5.68,0,0,1-3.5-10.16A108.88,108.88,0,0,1,136.72,155a103.56,103.56,0,0,1,64.08,19,5.68,5.68,0,1,1-6.57,9.27c-33.58-23.78-80.41-22.17-113.88,3.92A5.66,5.66,0,0,1,76.85,188.39Z"/><path class="cls-2" d="M93.18,61.8c-3.58-5.37-7.33-14.46-8.31-29.51a25.37,25.37,0,0,0-.26-7.43h0a16.37,16.37,0,0,0-4.37-8.63C70.41,6.4,48.78,12.09,31.93,28.94S9.39,67.42,19.22,77.25C22.47,80.49,27,82,32.23,82h0c.89,0,1.79,0,2.71-.11,19.29-.76,23.33,1.51,31.72,8.43"/><path class="cls-2" d="M180.23,59.31c3.58-5.37,7.33-14.46,8.31-29.51a25.37,25.37,0,0,1,.26-7.43h0a16.37,16.37,0,0,1,4.37-8.63C203,3.91,224.62,9.6,241.48,26.45S264,64.93,254.19,74.76c-3.25,3.25-7.79,4.77-13,4.79h0c-.89,0-1.79,0-2.71-.11-19.29-.76-23.33,1.51-31.72,8.43"/><path d="M34.4,70.06a5.69,5.69,0,0,1-5.59-6.75C32.18,45.72,45.94,30.73,63.07,26a5.68,5.68,0,1,1,3,11C53.25,40.5,42.51,52.22,40,65.45A5.69,5.69,0,0,1,34.4,70.06Z"/><path d="M236.9,67.57A5.69,5.69,0,0,1,231.33,63C228.8,49.73,218.05,38,205.21,34.45a5.68,5.68,0,1,1,3-11c17.12,4.74,30.89,19.74,34.26,37.32a5.69,5.69,0,0,1-5.59,6.75Z"/><path class="cls-3" d="M104.38,96.84a23.1,23.1,0,0,1,0,16c-1.8,4.5-6.84,7.43-12.31,8.92-3.55,1-7.41,1.47-10.5,3.1a11.16,11.16,0,0,0-6,11.24c1.51,12.63,22.24,14.24,23.93,26.6a12.32,12.32,0,0,1-4.8,11.18c-6.5,5.27-17.89,6.17-22.18,12.88-3.75,5.86,7.18,25.84,11.4,31.73"/><path class="cls-3" d="M172.22,96.84a23.1,23.1,0,0,0,0,16c1.8,4.5,6.84,7.43,12.31,8.92,3.55,1,7.41,1.47,10.5,3.1a11.16,11.16,0,0,1,6,11.24c-1.51,12.63-22.24,14.24-23.93,26.6a12.32,12.32,0,0,0,4.8,11.18c6.5,5.27,17.89,6.17,22.18,12.88,3.75,5.86-7.18,25.84-11.4,31.73"/><polyline class="cls-4" points="161.7 123.05 195.62 231.87 79.64 231.87 111.25 123.05"/><path d="M195.62,237.55h-116a5.68,5.68,0,0,1-5.46-7.27L105.8,121.46a5.68,5.68,0,0,1,10.91,3.17L87.21,226.19H187.9L156.27,124.74a5.68,5.68,0,1,1,10.85-3.38L201,230.18a5.68,5.68,0,0,1-5.43,7.37Z"/><path d="M115.38,187.67A5.68,5.68,0,0,1,112,177.42a45.34,45.34,0,0,1,50.94-2,5.68,5.68,0,0,1-6.1,9.59c-11.38-7.23-27-6.59-38.09,1.58A5.66,5.66,0,0,1,115.38,187.67Z"/><path d="M122.84,155.7a5.68,5.68,0,0,1-3.48-10.17A31,31,0,0,1,155.58,144a5.68,5.68,0,0,1-6.3,9.46,19.93,19.93,0,0,0-23,1A5.66,5.66,0,0,1,122.84,155.7Z"/><path class="cls-4" d="M137.5,263.67c-33.62,0-59-13.18-59-30.66s25.35-30.66,59-30.66,59,13.18,59,30.66S171.12,263.67,137.5,263.67Z"/><path d="M137.5,208c29.43,0,53.29,11.18,53.29,25s-23.86,25-53.29,25S84.21,246.8,84.21,233s23.86-25,53.29-25m0-11.37c-15.87,0-31,3-42.51,8.39-19.27,9-22.15,21.39-22.15,28S75.72,251.93,95,261c11.54,5.41,26.64,8.39,42.51,8.39s31-3,42.51-8.39c19.27-9,22.15-21.39,22.15-28s-2.88-18.92-22.15-28c-11.54-5.41-26.64-8.39-42.51-8.39Z"/><path d="M137.33,239.8c-15.05,0-25.07-3.44-30.48-6.42a3,3,0,0,1,0-5.3c5.41-3,15.42-6.42,30.48-6.42s25.07,3.44,30.48,6.42a3,3,0,0,1,0,5.3C162.4,236.36,152.38,239.8,137.33,239.8Z"/><path class="cls-5" d="M79.29,99.33c0-14.6,6.86-24.8,16.69-24.8"/><polyline class="cls-5" points="94.5 86.69 112.67 99.52 94.5 116.86"/><line class="cls-5" x1="90.66" y1="101.52" x2="111.45" y2="100.42"/><path class="cls-5" d="M194.66,97.33c0-14.6-6.86-24.8-16.69-24.8"/><polyline class="cls-5" points="179.46 84.69 161.29 97.52 179.46 114.86"/><line class="cls-5" x1="183.3" y1="99.52" x2="162.51" y2="98.42"/></svg>